<svg id="Layer_1" data-name="Layer 1" xmlns="http://www.w3.org/2000/svg" viewBox="0 0 66 110.63"><defs><style>.cls-1{fill:#fff;}</style></defs><title>freccia</title><path class="cls-1" d="M55.21,109.13a9,9,0,0,1-6.38-2.64L4.14,61.79A9,9,0,0,1,4.14,49a3.31,3.31,0,0,1,.36-0.3L49.1,4.14A9,9,0,1,1,61.86,16.9L23.31,55.45,61.59,93.73A9,9,0,0,1,55.21,109.13Z"/><path d="M55.48,3A7.52,7.52,0,0,1,60.8,15.84L21.18,55.45,60.53,94.79a7.52,7.52,0,0,1-10.64,10.63L5.2,60.73a7.52,7.52,0,0,1,0-10.63c0.11-.11.24-0.19,0.35-0.29L50.16,5.2A7.49,7.49,0,0,1,55.48,3m0-3A10.44,10.44,0,0,0,48,3.08L3.56,47.57a4.56,4.56,0,0,0-.48.41,10.52,10.52,0,0,0,0,14.87l44.69,44.69A10.52,10.52,0,0,0,62.65,92.67L25.43,55.45,62.92,18A10.52,10.52,0,0,0,55.48,0h0Z"/></svg>