<!-- Generator: Adobe Illustrator 19.2.1, SVG Export Plug-In  -->
<svg version="1.1"
	 xmlns="http://www.w3.org/2000/svg" xmlns:xlink="http://www.w3.org/1999/xlink" xmlns:a="http://ns.adobe.com/AdobeSVGViewerExtensions/3.0/"
	 x="0px" y="0px" width="578.835px" height="291.425px" viewBox="0 0 578.835 291.425"
	 style="enable-background:new 0 0 578.835 291.425;" xml:space="preserve">
<style type="text/css">
	.st0{fill:#FFFFFF;stroke:#FFFFFF;stroke-width:2.8346;stroke-miterlimit:10;}
	.st1{fill:#202020;}
</style>
<defs>
</defs>
<g>
	<rect x="1.417" y="1.417" class="st0" width="576" height="288.59"/>
	<g>
		<path class="st1" d="M137.297,224.584l2.173-3.304c1.488,1.191,3.899,1.935,5.715,1.935c1.012,0,1.905-0.298,1.905-1.042
			c0-0.833-0.744-1.101-2.47-1.339c-2.709-0.387-6.549-1.012-6.549-5.149c0-3.572,2.917-5.388,6.519-5.388
			c3.484,0,5.506,0.804,7.442,2.203l-2.173,3.244c-1.727-1.011-3.424-1.607-4.703-1.607c-0.983,0-1.637,0.298-1.637,1.012
			c0,0.744,0.833,1.012,2.439,1.22c2.709,0.357,6.578,0.952,6.578,4.821c0,4.227-3.631,5.686-7.321,5.686
			C141.494,226.877,139.054,225.864,137.297,224.584z"/>
		<path class="st1" d="M153.663,218.602c0-6.637,4.882-8.304,8.393-8.304c4.703,0,6.37,2.381,7.294,5.06l-4.941,1.547
			c-0.507-1.934-1.309-2.381-2.412-2.381c-1.755,0-2.439,1.608-2.439,4.108c0,2.322,0.416,4.167,2.381,4.167
			c0.952,0,2.053-0.476,2.589-2.56l4.88,1.638c-0.922,2.381-2.946,5-7.56,5C158.098,226.877,153.663,225.15,153.663,218.602z"/>
		<path class="st1" d="M171.308,210.595h5.892v2.471h0.031c0.684-1.102,2.053-2.769,4.971-2.769h0.06v5.209
			c-0.239-0.03-1.072-0.119-1.488-0.119c-1.668,0-2.798,0.833-3.573,1.459v9.703h-5.892V210.595z"/>
		<path class="st1" d="M184.4,204.523h5.892v4.525H184.4V204.523z M184.4,210.595h5.892v15.954H184.4V210.595z"/>
		<path class="st1" d="M191.66,210.595h6.042l2.798,9.495h0.06l2.828-9.495h5.476l-5.626,15.954h-5.952L191.66,210.595z"/>
		<path class="st1" d="M210.228,204.523h5.892v4.525h-5.892V204.523z M210.228,210.595h5.892v15.954h-5.892V210.595z"/>
		<path class="st1" d="M237.813,224.316c-0.952,1.28-2.381,2.471-4.733,2.471c-3.6,0-5.952-2.56-5.952-8.036
			s2.381-8.453,6.012-8.453c2.144,0,3.573,0.626,4.673,2.203v-1.905h5.894v21.906h-5.894V224.316z M237.813,221.251v-5.119
			c-0.804-0.714-1.429-1.012-2.441-1.012c-1.756,0-2.35,1.339-2.35,3.602c0,1.965,0.446,3.69,2.41,3.69
			C236.356,222.411,237.337,221.757,237.813,221.251z"/>
		<path class="st1" d="M246.765,222.263v-11.668h5.894v9.882c0,1.101,0.357,1.726,1.34,1.726c1.012,0,1.874-0.506,2.649-1.131
			v-10.477h5.892v15.954h-5.892v-2.441c-0.684,1.102-2.352,2.769-5.298,2.769C248.849,226.877,246.765,225.686,246.765,222.263z"/>
		<path class="st1" d="M265.9,204.523h5.892v4.525H265.9V204.523z M265.9,210.595h5.892v15.954H265.9V210.595z"/>
		<path class="st1" d="M283.812,204.523h5.892v4.525h-5.892V204.523z M283.812,210.595h5.892v15.954h-5.892V210.595z"/>
		<path class="st1" d="M293.214,204.523h5.892v22.026h-5.892V204.523z"/>
		<path class="st1" d="M312.316,221.757v-6.935h-2.589v-4.226h2.589v-5.357h5.894v5.357h4.078v4.226h-4.078v5.626
			c0,1.696,0.416,2.113,2.084,2.113c0.505,0,1.279-0.09,1.547-0.178v4.107c-0.297,0.09-2.441,0.268-3.602,0.268
			C312.823,226.757,312.316,224.852,312.316,221.757z"/>
		<path class="st1" d="M324.277,222.263v-11.668h5.894v9.882c0,1.101,0.357,1.726,1.34,1.726c1.012,0,1.874-0.506,2.649-1.131
			v-10.477h5.892v15.954h-5.892v-2.441c-0.684,1.102-2.352,2.769-5.298,2.769C326.361,226.877,324.277,225.686,324.277,222.263z"/>
		<path class="st1" d="M342.398,218.602c0-6.637,4.643-8.304,8.512-8.304c3.839,0,8.512,1.667,8.512,8.304
			c0,6.549-4.673,8.275-8.512,8.275S342.398,225.15,342.398,218.602z M353.53,218.631c0-2.321-0.596-4.108-2.62-4.108
			c-1.934,0-2.618,1.608-2.618,4.108c0,2.322,0.565,4.167,2.618,4.167C352.844,222.799,353.53,221.162,353.53,218.631z"/>
		<path class="st1" d="M371.617,221.757v-6.935h-2.589v-4.226h2.589v-5.357h5.894v5.357h4.078v4.226h-4.078v5.626
			c0,1.696,0.417,2.113,2.084,2.113c0.505,0,1.279-0.09,1.547-0.178v4.107c-0.297,0.09-2.441,0.268-3.602,0.268
			C372.124,226.757,371.617,224.852,371.617,221.757z"/>
		<path class="st1" d="M382.866,218.602c0-6.399,5.15-8.304,8.393-8.304c3.156,0,7.679,1.132,7.679,9.078v0.893h-10.209
			c0.299,2.084,1.459,2.59,3.185,2.59c1.666,0,3.542-0.834,4.583-1.459l2.113,3.572c-2.023,1.309-4.494,1.905-7.143,1.905
			C387.092,226.877,382.866,225.06,382.866,218.602z M393.73,216.905c-0.239-1.905-1.103-2.5-2.501-2.5
			c-1.161,0-2.084,0.684-2.441,2.5H393.73z"/>
		<path class="st1" d="M399.766,224.584l2.173-3.304c1.488,1.191,3.899,1.935,5.715,1.935c1.012,0,1.905-0.298,1.905-1.042
			c0-0.833-0.744-1.101-2.47-1.339c-2.709-0.387-6.548-1.012-6.548-5.149c0-3.572,2.915-5.388,6.517-5.388
			c3.482,0,5.506,0.804,7.442,2.203l-2.173,3.244c-1.727-1.011-3.424-1.607-4.703-1.607c-0.983,0-1.637,0.298-1.637,1.012
			c0,0.744,0.833,1.012,2.439,1.22c2.709,0.357,6.578,0.952,6.578,4.821c0,4.227-3.631,5.686-7.323,5.686
			C403.963,226.877,401.523,225.864,399.766,224.584z"/>
		<path class="st1" d="M418.215,221.757v-6.935h-2.589v-4.226h2.589v-5.357h5.894v5.357h4.078v4.226h-4.078v5.626
			c0,1.696,0.417,2.113,2.084,2.113c0.505,0,1.279-0.09,1.547-0.178v4.107c-0.297,0.09-2.441,0.268-3.602,0.268
			C418.722,226.757,418.215,224.852,418.215,221.757z"/>
		<path class="st1" d="M429.462,218.602c0-6.637,4.643-8.304,8.512-8.304c3.839,0,8.512,1.667,8.512,8.304
			c0,6.549-4.673,8.275-8.512,8.275S429.462,225.15,429.462,218.602z M440.594,218.631c0-2.321-0.596-4.108-2.62-4.108
			c-1.934,0-2.618,1.608-2.618,4.108c0,2.322,0.565,4.167,2.618,4.167C439.908,222.799,440.594,221.162,440.594,218.631z"/>
	</g>
	<g>
		<path class="st1" d="M504.495,66.021h1.429v-4.97c-0.384,0.203-0.949,0.362-1.406,0.362v-1.419c0.607-0.02,1.098-0.181,1.45-0.511
			h1.632v6.538h1.247v1.355h-4.351V66.021z"/>
		<path class="st1" d="M512.974,65.83h-3.83v-1.26l3.594-5.087h1.91v4.981h1.332v1.365h-1.332v1.547h-1.674V65.83z M512.974,64.465
			v-2.912h-0.022l-2.017,2.912H512.974z"/>
		<path class="st1" d="M520.182,65.83h-3.83v-1.26l3.594-5.087h1.91v4.981h1.334v1.365h-1.334v1.547h-1.674V65.83z M520.182,64.465
			v-2.912h-0.022l-2.016,2.912H520.182z"/>
		<path class="st1" d="M513.842,84.036c-11.361,0-20.606-9.245-20.606-20.607h2.369c0,10.057,8.181,18.238,18.237,18.238
			c10.057,0,18.238-8.181,18.238-18.238c0-10.056-8.181-18.236-18.238-18.236v-2.37c11.362,0,20.607,9.245,20.607,20.606
			C534.449,74.791,525.205,84.036,513.842,84.036"/>
	</g>
</g>
</svg>