<!-- Generator: Adobe Illustrator 19.2.1, SVG Export Plug-In  -->
<svg version="1.1"
	 xmlns="http://www.w3.org/2000/svg" xmlns:xlink="http://www.w3.org/1999/xlink" xmlns:a="http://ns.adobe.com/AdobeSVGViewerExtensions/3.0/"
	 x="0px" y="0px" width="576px" height="577.419px" viewBox="0 0 576 577.419" style="enable-background:new 0 0 576 577.419;"
	 xml:space="preserve">
<style type="text/css">
	.st0{fill:none;stroke:#FFFFFF;stroke-width:2;stroke-miterlimit:10;}
	.st1{fill:none;stroke:#FFFFFF;stroke-width:2.8346;stroke-miterlimit:10;}
	.st2{fill:#FFFFFF;}
</style>
<defs>
</defs>
<g>
	<g>
		<rect y="1.417" width="576" height="576.002"/>
		<path class="st0" d="M314.094,236.563c-8.044-9.667-16.091-19.333-24.137-28.992c-0.592-0.717-1.288-0.97-1.957-0.926
			c-0.671-0.045-1.37,0.208-1.959,0.926c-8.046,9.659-16.093,19.324-24.137,28.992c-1.491,1.789-0.623,4.734,1.957,4.734h10.125
			v43.854c0,1.511,1.263,2.771,2.776,2.771h22.474c1.513,0,2.774-1.26,2.774-2.771v-43.854h10.125
			C314.718,241.298,315.584,238.352,314.094,236.563z"/>
		<path class="st0" d="M288,179.575c-37.393,0-67.707,30.314-67.707,67.707c0,37.391,30.314,67.706,67.707,67.706
			c37.391,0,67.705-30.316,67.705-67.706C355.705,209.889,325.391,179.575,288,179.575z M288,304.157
			c-31.41,0-56.872-25.466-56.872-56.876c0-31.41,25.462-56.869,56.872-56.869c31.41,0,56.871,25.459,56.871,56.869
			C344.871,278.691,319.41,304.157,288,304.157z"/>
		<line class="st1" x1="0" y1="1.417" x2="575.971" y2="1.417"/>
	</g>
	<g>
		<path class="st2" d="M133.3,388.682c0-6.637,4.881-8.304,8.394-8.304c4.703,0,6.369,2.381,7.292,5.06l-4.941,1.547
			c-0.506-1.934-1.31-2.381-2.411-2.381c-1.756,0-2.441,1.608-2.441,4.108c0,2.322,0.417,4.167,2.381,4.167
			c0.952,0,2.054-0.476,2.589-2.56l4.882,1.638c-0.923,2.381-2.947,5-7.561,5C137.734,396.957,133.3,395.23,133.3,388.682z"/>
		<path class="st2" d="M149.843,392.343c0-3.572,3.304-5.745,9.852-6.042v-0.208c0-0.773-0.387-1.339-1.756-1.339
			c-1.845,0-3.572,0.774-4.911,1.727l-2.411-3.334c1.459-1.31,3.958-2.769,8.244-2.769c4.703,0,6.578,2.203,6.578,6.697v5.685
			c0,1.905,0.119,3.066,0.447,3.87h-5.834c-0.208-0.655-0.357-1.429-0.357-2.321c-1.31,1.637-2.947,2.56-5.298,2.56
			C152.105,396.867,149.843,395.469,149.843,392.343z M159.696,391.569v-2.262c-2.857,0.089-4.108,0.833-4.108,2.053
			c0,0.774,0.565,1.131,1.309,1.131C158.356,392.492,159.189,392.045,159.696,391.569z"/>
		<path class="st2" d="M168.47,380.676h5.893v2.471h0.03c0.685-1.102,2.054-2.769,4.971-2.769h0.059v5.209
			c-0.238-0.03-1.071-0.119-1.488-0.119c-1.668,0-2.798,0.833-3.573,1.459v9.703h-5.893V380.676z"/>
		<path class="st2" d="M181.562,374.603h5.893v4.525h-5.893V374.603z M181.562,380.676h5.893v15.954h-5.893V380.676z"/>
		<path class="st2" d="M189.953,388.682c0-6.637,4.881-8.304,8.394-8.304c4.703,0,6.369,2.381,7.292,5.06l-4.941,1.547
			c-0.506-1.934-1.31-2.381-2.411-2.381c-1.756,0-2.441,1.608-2.441,4.108c0,2.322,0.416,4.167,2.381,4.167
			c0.952,0,2.054-0.476,2.589-2.56l4.882,1.638c-0.923,2.381-2.947,5-7.561,5C194.387,396.957,189.953,395.23,189.953,388.682z"/>
		<path class="st2" d="M206.497,392.343c0-3.572,3.304-5.745,9.852-6.042v-0.208c0-0.773-0.387-1.339-1.756-1.339
			c-1.845,0-3.572,0.774-4.911,1.727l-2.411-3.334c1.459-1.31,3.958-2.769,8.244-2.769c4.703,0,6.578,2.203,6.578,6.697v5.685
			c0,1.905,0.119,3.066,0.447,3.87h-5.834c-0.208-0.655-0.357-1.429-0.357-2.321c-1.31,1.637-2.947,2.56-5.298,2.56
			C208.758,396.867,206.497,395.469,206.497,392.343z M216.349,391.569v-2.262c-2.857,0.089-4.108,0.833-4.108,2.053
			c0,0.774,0.565,1.131,1.309,1.131C215.009,392.492,215.843,392.045,216.349,391.569z"/>
		<path class="st2" d="M243.456,394.397c-0.952,1.28-2.381,2.471-4.732,2.471c-3.602,0-5.953-2.56-5.953-8.036
			c0-5.477,2.381-8.453,6.013-8.453c2.143,0,3.572,0.626,4.673,2.203v-1.905h5.893v21.906h-5.893V394.397z M243.456,391.331v-5.119
			c-0.804-0.714-1.429-1.012-2.441-1.012c-1.756,0-2.351,1.339-2.351,3.602c0,1.965,0.446,3.69,2.411,3.69
			C241.997,392.492,242.98,391.837,243.456,391.331z"/>
		<path class="st2" d="M252.409,392.343v-11.668h5.893v9.882c0,1.101,0.358,1.726,1.34,1.726c1.011,0,1.875-0.506,2.648-1.131
			v-10.477h5.894v15.954h-5.894v-2.441c-0.684,1.102-2.351,2.769-5.297,2.769C254.492,396.957,252.409,395.766,252.409,392.343z"/>
		<path class="st2" d="M271.541,374.603h5.893v4.525h-5.893V374.603z M271.541,380.676h5.893v15.954h-5.893V380.676z"/>
		<path class="st2" d="M289.454,374.603h5.893v22.026h-5.893V374.603z"/>
		<path class="st2" d="M297.606,392.343c0-3.572,3.304-5.745,9.852-6.042v-0.208c0-0.773-0.387-1.339-1.756-1.339
			c-1.845,0-3.572,0.774-4.911,1.727l-2.411-3.334c1.459-1.31,3.958-2.769,8.244-2.769c4.703,0,6.578,2.203,6.578,6.697v5.685
			c0,1.905,0.119,3.066,0.447,3.87h-5.834c-0.208-0.655-0.357-1.429-0.357-2.321c-1.31,1.637-2.947,2.56-5.298,2.56
			C299.868,396.867,297.606,395.469,297.606,392.343z M307.458,391.569v-2.262c-2.857,0.089-4.108,0.833-4.108,2.053
			c0,0.774,0.565,1.131,1.309,1.131C306.118,392.492,306.952,392.045,307.458,391.569z"/>
		<path class="st2" d="M326.082,391.837v-6.935h-2.59v-4.226h2.59v-5.357h5.893v5.357h4.078v4.226h-4.078v5.626
			c0,1.696,0.417,2.113,2.083,2.113c0.506,0,1.28-0.09,1.548-0.178v4.107c-0.298,0.09-2.441,0.268-3.602,0.268
			C326.588,396.837,326.082,394.933,326.082,391.837z"/>
		<path class="st2" d="M338.043,392.343v-11.668h5.893v9.882c0,1.101,0.358,1.726,1.339,1.726c1.012,0,1.876-0.506,2.649-1.131
			v-10.477h5.894v15.954h-5.894v-2.441c-0.684,1.102-2.351,2.769-5.297,2.769C340.127,396.957,338.043,395.766,338.043,392.343z"/>
		<path class="st2" d="M355.926,392.343c0-3.572,3.304-5.745,9.851-6.042v-0.208c0-0.773-0.387-1.339-1.756-1.339
			c-1.845,0-3.572,0.774-4.912,1.727l-2.41-3.334c1.458-1.31,3.958-2.769,8.244-2.769c4.703,0,6.578,2.203,6.578,6.697v5.685
			c0,1.905,0.119,3.066,0.446,3.87h-5.833c-0.208-0.655-0.358-1.429-0.358-2.321c-1.309,1.637-2.946,2.56-5.297,2.56
			C358.188,396.867,355.926,395.469,355.926,392.343z M365.778,391.569v-2.262c-2.857,0.089-4.107,0.833-4.107,2.053
			c0,0.774,0.565,1.131,1.309,1.131C364.438,392.492,365.272,392.045,365.778,391.569z"/>
		<path class="st2" d="M384.58,384.902h-2.589v-4.226h2.589v-0.595c0-2.649,0.506-5.626,5.923-5.626
			c1.161,0,3.304,0.178,3.602,0.268v4.018c-0.268-0.089-1.042-0.178-1.548-0.178c-1.041,0-2.083,0.06-2.083,1.756v0.358h3.453v4.226
			h-3.453v11.727h-5.893V384.902z"/>
		<path class="st2" d="M394.577,388.682c0-6.637,4.643-8.304,8.512-8.304c3.84,0,8.512,1.667,8.512,8.304
			c0,6.549-4.673,8.275-8.512,8.275S394.577,395.23,394.577,388.682z M405.709,388.712c0-2.321-0.595-4.108-2.619-4.108
			c-1.935,0-2.619,1.608-2.619,4.108c0,2.322,0.566,4.167,2.619,4.167C405.024,392.879,405.709,391.242,405.709,388.712z"/>
		<path class="st2" d="M415.288,391.837v-6.935h-2.59v-4.226h2.59v-5.357h5.893v5.357h4.078v4.226h-4.078v5.626
			c0,1.696,0.416,2.113,2.083,2.113c0.506,0,1.28-0.09,1.548-0.178v4.107c-0.298,0.09-2.441,0.268-3.602,0.268
			C415.794,396.837,415.288,394.933,415.288,391.837z"/>
		<path class="st2" d="M426.534,388.682c0-6.637,4.643-8.304,8.512-8.304c3.84,0,8.512,1.667,8.512,8.304
			c0,6.549-4.673,8.275-8.512,8.275C431.207,396.957,426.534,395.23,426.534,388.682z M437.666,388.712
			c0-2.321-0.595-4.108-2.619-4.108c-1.935,0-2.619,1.608-2.619,4.108c0,2.322,0.566,4.167,2.619,4.167
			C436.982,392.879,437.666,391.242,437.666,388.712z"/>
	</g>
</g>
</svg>