<!-- Generator: Adobe Illustrator 19.2.1, SVG Export Plug-In  -->
<svg version="1.1"
	 xmlns="http://www.w3.org/2000/svg" xmlns:xlink="http://www.w3.org/1999/xlink" xmlns:a="http://ns.adobe.com/AdobeSVGViewerExtensions/3.0/"
	 x="0px" y="0px" width="480px" height="481.419px" viewBox="0 0 480 481.419" style="enable-background:new 0 0 480 481.419;"
	 xml:space="preserve">
<style type="text/css">
	.st0{fill:none;stroke:#FFFFFF;stroke-width:2;stroke-miterlimit:10;}
	.st1{fill:none;stroke:#FFFFFF;stroke-width:2.8346;stroke-miterlimit:10;}
	.st2{fill:#FFFFFF;}
</style>
<defs>
</defs>
<g>
	<g>
		<rect y="1.417" width="480" height="480.001"/>
		<path class="st0" d="M261.745,197.372c-6.703-8.056-13.409-16.11-20.114-24.16c-0.493-0.598-1.073-0.809-1.631-0.771
			c-0.559-0.037-1.142,0.174-1.632,0.771c-6.705,8.049-13.411,16.104-20.114,24.16c-1.243,1.491-0.519,3.945,1.631,3.945h8.438
			v36.545c0,1.259,1.052,2.309,2.313,2.309h18.728c1.26,0,2.312-1.05,2.312-2.309v-36.545h8.438
			C262.265,201.318,262.986,198.863,261.745,197.372z"/>
		<path class="st0" d="M240,149.882c-31.16,0-56.422,25.262-56.422,56.422c0,31.159,25.262,56.422,56.422,56.422
			c31.159,0,56.421-25.263,56.421-56.422C296.421,175.143,271.159,149.882,240,149.882z M240,253.7
			c-26.175,0-47.394-21.221-47.394-47.396c0-26.175,21.219-47.391,47.394-47.391c26.175,0,47.392,21.216,47.392,47.391
			C287.392,232.479,266.175,253.7,240,253.7z"/>
		<line class="st1" x1="0" y1="1.417" x2="479.976" y2="1.417"/>
	</g>
	<g>
		<path class="st2" d="M111.083,324.138c0-5.531,4.067-6.92,6.995-6.92c3.919,0,5.308,1.984,6.077,4.217l-4.117,1.289
			c-0.422-1.612-1.092-1.984-2.009-1.984c-1.464,0-2.034,1.34-2.034,3.423c0,1.935,0.347,3.473,1.984,3.473
			c0.794,0,1.712-0.397,2.158-2.134l4.068,1.365c-0.769,1.984-2.456,4.167-6.301,4.167
			C114.779,331.034,111.083,329.595,111.083,324.138z"/>
		<path class="st2" d="M124.869,327.189c0-2.976,2.753-4.787,8.21-5.035v-0.174c0-0.644-0.323-1.116-1.464-1.116
			c-1.538,0-2.976,0.645-4.092,1.439l-2.009-2.778c1.215-1.092,3.299-2.307,6.87-2.307c3.919,0,5.481,1.836,5.481,5.581v4.737
			c0,1.587,0.1,2.555,0.373,3.225h-4.862c-0.174-0.546-0.297-1.191-0.297-1.935c-1.092,1.364-2.456,2.133-4.415,2.133
			C126.754,330.959,124.869,329.793,124.869,327.189z M133.08,326.544v-1.885c-2.381,0.074-3.423,0.694-3.423,1.711
			c0,0.645,0.471,0.942,1.091,0.942C131.963,327.313,132.658,326.941,133.08,326.544z"/>
		<path class="st2" d="M140.392,317.466h4.911v2.059h0.025c0.571-0.918,1.712-2.307,4.143-2.307h0.049v4.341
			c-0.198-0.025-0.893-0.099-1.24-0.099c-1.39,0-2.332,0.694-2.977,1.215v8.086h-4.911V317.466z"/>
		<path class="st2" d="M151.302,312.406h4.911v3.771h-4.911V312.406z M151.302,317.466h4.911v13.295h-4.911V317.466z"/>
		<path class="st2" d="M158.294,324.138c0-5.531,4.067-6.92,6.995-6.92c3.919,0,5.308,1.984,6.077,4.217l-4.117,1.289
			c-0.422-1.612-1.092-1.984-2.009-1.984c-1.464,0-2.034,1.34-2.034,3.423c0,1.935,0.347,3.473,1.984,3.473
			c0.794,0,1.712-0.397,2.158-2.134l4.068,1.365c-0.769,1.984-2.456,4.167-6.301,4.167
			C161.99,331.034,158.294,329.595,158.294,324.138z"/>
		<path class="st2" d="M172.08,327.189c0-2.976,2.753-4.787,8.21-5.035v-0.174c0-0.644-0.323-1.116-1.464-1.116
			c-1.538,0-2.976,0.645-4.092,1.439l-2.009-2.778c1.215-1.092,3.299-2.307,6.87-2.307c3.919,0,5.481,1.836,5.481,5.581v4.737
			c0,1.587,0.1,2.555,0.373,3.225h-4.862c-0.174-0.546-0.297-1.191-0.297-1.935c-1.092,1.364-2.456,2.133-4.415,2.133
			C173.965,330.959,172.08,329.793,172.08,327.189z M180.291,326.544v-1.885c-2.381,0.074-3.423,0.694-3.423,1.711
			c0,0.645,0.471,0.942,1.091,0.942C179.174,327.313,179.869,326.941,180.291,326.544z"/>
		<path class="st2" d="M202.88,328.9c-0.794,1.067-1.984,2.059-3.944,2.059c-3.001,0-4.961-2.133-4.961-6.697
			s1.984-7.045,5.01-7.045c1.786,0,2.976,0.521,3.894,1.836v-1.587h4.911v18.255h-4.911V328.9z M202.88,326.345v-4.266
			c-0.67-0.595-1.191-0.843-2.034-0.843c-1.463,0-1.959,1.116-1.959,3.001c0,1.637,0.372,3.075,2.009,3.075
			C201.664,327.313,202.483,326.767,202.88,326.345z"/>
		<path class="st2" d="M210.341,327.189v-9.723h4.911v8.235c0,0.917,0.298,1.438,1.117,1.438c0.843,0,1.563-0.422,2.207-0.942
			v-8.731h4.912v13.295h-4.912v-2.034c-0.57,0.918-1.959,2.307-4.415,2.307C212.077,331.034,210.341,330.042,210.341,327.189z"/>
		<path class="st2" d="M226.284,312.406h4.911v3.771h-4.911V312.406z M226.284,317.466h4.911v13.295h-4.911V317.466z"/>
		<path class="st2" d="M241.211,312.406h4.911v18.355h-4.911V312.406z"/>
		<path class="st2" d="M248.005,327.189c0-2.976,2.753-4.787,8.21-5.035v-0.174c0-0.644-0.323-1.116-1.464-1.116
			c-1.538,0-2.976,0.645-4.092,1.439l-2.009-2.778c1.215-1.092,3.299-2.307,6.87-2.307c3.919,0,5.481,1.836,5.481,5.581v4.737
			c0,1.587,0.1,2.555,0.373,3.225h-4.862c-0.174-0.546-0.297-1.191-0.297-1.935c-1.092,1.364-2.456,2.133-4.415,2.133
			C249.89,330.959,248.005,329.793,248.005,327.189z M256.215,326.544v-1.885c-2.381,0.074-3.423,0.694-3.423,1.711
			c0,0.645,0.471,0.942,1.091,0.942C255.099,327.313,255.794,326.941,256.215,326.544z"/>
		<path class="st2" d="M271.735,326.767v-5.779h-2.159v-3.522h2.159v-4.464h4.911v4.464h3.398v3.522h-3.398v4.688
			c0,1.413,0.347,1.761,1.736,1.761c0.422,0,1.067-0.075,1.29-0.149v3.422c-0.248,0.075-2.034,0.223-3.001,0.223
			C272.157,330.934,271.735,329.347,271.735,326.767z"/>
		<path class="st2" d="M281.703,327.189v-9.723h4.911v8.235c0,0.917,0.298,1.438,1.116,1.438c0.844,0,1.563-0.422,2.208-0.942
			v-8.731h4.912v13.295h-4.912v-2.034c-0.57,0.918-1.959,2.307-4.415,2.307C283.439,331.034,281.703,330.042,281.703,327.189z"/>
		<path class="st2" d="M296.605,327.189c0-2.976,2.753-4.787,8.21-5.035v-0.174c0-0.644-0.322-1.116-1.463-1.116
			c-1.538,0-2.976,0.645-4.093,1.439l-2.008-2.778c1.215-1.092,3.299-2.307,6.87-2.307c3.919,0,5.481,1.836,5.481,5.581v4.737
			c0,1.587,0.1,2.555,0.372,3.225h-4.861c-0.174-0.546-0.298-1.191-0.298-1.935c-1.091,1.364-2.455,2.133-4.415,2.133
			C298.49,330.959,296.605,329.793,296.605,327.189z M304.815,326.544v-1.885c-2.381,0.074-3.422,0.694-3.422,1.711
			c0,0.645,0.471,0.942,1.091,0.942C303.699,327.313,304.394,326.941,304.815,326.544z"/>
		<path class="st2" d="M320.484,320.988h-2.158v-3.522h2.158v-0.496c0-2.208,0.422-4.688,4.936-4.688
			c0.967,0,2.753,0.149,3.001,0.223v3.348c-0.223-0.074-0.868-0.149-1.29-0.149c-0.868,0-1.736,0.05-1.736,1.463v0.298h2.878v3.522
			h-2.878v9.773h-4.911V320.988z"/>
		<path class="st2" d="M328.814,324.138c0-5.531,3.869-6.92,7.094-6.92c3.2,0,7.094,1.389,7.094,6.92
			c0,5.457-3.894,6.896-7.094,6.896S328.814,329.595,328.814,324.138z M338.091,324.163c0-1.935-0.496-3.423-2.183-3.423
			c-1.612,0-2.183,1.34-2.183,3.423c0,1.935,0.471,3.473,2.183,3.473C337.52,327.636,338.091,326.271,338.091,324.163z"/>
		<path class="st2" d="M346.074,326.767v-5.779h-2.159v-3.522h2.159v-4.464h4.911v4.464h3.398v3.522h-3.398v4.688
			c0,1.413,0.347,1.761,1.736,1.761c0.422,0,1.067-0.075,1.29-0.149v3.422c-0.248,0.075-2.034,0.223-3.001,0.223
			C346.495,330.934,346.074,329.347,346.074,326.767z"/>
		<path class="st2" d="M355.445,324.138c0-5.531,3.869-6.92,7.094-6.92c3.2,0,7.094,1.389,7.094,6.92
			c0,5.457-3.894,6.896-7.094,6.896S355.445,329.595,355.445,324.138z M364.722,324.163c0-1.935-0.496-3.423-2.183-3.423
			c-1.612,0-2.183,1.34-2.183,3.423c0,1.935,0.472,3.473,2.183,3.473C364.151,327.636,364.722,326.271,364.722,324.163z"/>
	</g>
</g>
</svg>