<!-- Generator: Adobe Illustrator 21.1.0, SVG Export Plug-In  -->
<svg version="1.1"
	 xmlns="http://www.w3.org/2000/svg" xmlns:xlink="http://www.w3.org/1999/xlink" xmlns:a="http://ns.adobe.com/AdobeSVGViewerExtensions/3.0/"
	 x="0px" y="0px" width="66px" height="110.626px" viewBox="0 0 66 110.626" style="enable-background:new 0 0 66 110.626;"
	 xml:space="preserve">
<style type="text/css">
	.st0{fill:#FFFFFF;}
</style>
<defs>
</defs>
<g>
	<path class="st0" d="M10.792,109.126c-2.41,0-4.675-0.938-6.377-2.643c-1.703-1.701-2.642-3.966-2.642-6.375
		c0-2.409,0.938-4.674,2.641-6.378l38.281-38.284L4.142,16.896C2.439,15.193,1.5,12.928,1.5,10.519c0-2.408,0.938-4.673,2.642-6.376
		C5.844,2.439,8.109,1.5,10.519,1.5c0,0,0,0,0,0c2.41,0,4.675,0.938,6.377,2.643l44.606,44.605c0.119,0.077,0.241,0.175,0.354,0.289
		c1.704,1.702,2.642,3.967,2.643,6.376c0,2.409-0.938,4.674-2.641,6.378l-44.689,44.692
		C15.467,108.188,13.201,109.126,10.792,109.126z"/>
	<path d="M10.519,3c1.925,0,3.849,0.734,5.316,2.203l44.607,44.606c0.115,0.102,0.244,0.179,0.354,0.289
		c2.937,2.934,2.937,7.695,0.001,10.633L16.11,105.423c-1.469,1.469-3.394,2.203-5.318,2.203c-1.924,0-3.849-0.734-5.316-2.203
		c-2.937-2.934-2.937-7.695-0.001-10.633l39.34-39.344L5.203,15.836c-2.937-2.937-2.937-7.695,0-10.633C6.67,3.734,8.595,3,10.519,3
		 M10.519,0C7.708,0,5.066,1.095,3.081,3.083C1.094,5.069,0,7.71,0,10.519s1.094,5.451,3.082,7.438l37.491,37.49L3.353,92.669
		c-1.987,1.988-3.08,4.629-3.08,7.439c0,2.81,1.095,5.452,3.083,7.437c1.984,1.986,4.626,3.081,7.437,3.081
		c2.81,0,5.452-1.094,7.439-3.082L62.92,62.852c1.987-1.988,3.08-4.629,3.08-7.439c0-2.81-1.095-5.452-3.083-7.437
		c-0.185-0.186-0.357-0.321-0.473-0.409L17.957,3.082C15.972,1.095,13.33,0,10.519,0L10.519,0z"/>
</g>
</svg>