<!-- Generator: Adobe Illustrator 19.2.1, SVG Export Plug-In  -->
<svg version="1.1"
	 xmlns="http://www.w3.org/2000/svg" xmlns:xlink="http://www.w3.org/1999/xlink" xmlns:a="http://ns.adobe.com/AdobeSVGViewerExtensions/3.0/"
	 x="0px" y="0px" width="149.993px" height="41.266px" viewBox="0 0 149.993 41.266"
	 style="enable-background:new 0 0 149.993 41.266;" xml:space="preserve">
<style type="text/css">
	.st0{fill-rule:evenodd;clip-rule:evenodd;}
	.st1{fill-rule:evenodd;clip-rule:evenodd;fill:#FFFFFF;}
	.st2{fill-rule:evenodd;clip-rule:evenodd;fill:#202020;}
</style>
<defs>
</defs>
<g>
	<path class="st0" d="M145.555,11.142c0.158,0.206,0.434,0.599,0.741,0.973c0.555,0.67,1.25,0.939,2.108,0.665
		c0.891-0.288,1.432-0.928,1.528-1.831c0.292-2.725-0.456-5.144-2.298-7.188c-0.62-0.69-1.363-1.223-2.36-0.877
		c-1.027,0.357-1.22,1.277-1.335,2.218c-0.012,0.102-0.012,0.203-0.019,0.305C143.837,7.415,144.589,9.187,145.555,11.142
		L145.555,11.142z"/>
	<path class="st1" d="M0.25,41.266h3.49c-0.02-0.25-0.03-0.51-0.03-0.76c-0.02-0.36-0.02-0.73-0.01-1.1c0-0.05,0.01-0.11,0.01-0.17
		c0.02-0.26,0.03-0.52,0.05-0.78c0.13-1.6,0.38-3.18,0.67-4.76c0.1-0.52,0.2-1.04,0.31-1.58c0.11-0.57,0.61-1.11,1.05-1.54
		c1.44-1.39,3.15-2.29,5.08-2.84c2.28-0.65,4.54-1.38,6.8-2.08c0.38-0.11,0.75-0.23,1.13-0.35c0.37-0.12,0.75-0.24,1.13-0.35
		c0.83-0.25,1.66-0.49,2.49-0.73c2.49-0.73,4.99-1.45,7.47-2.19c2.95-0.88,5.9-1.78,8.85-2.67c3.93-1.18,7.86-2.35,11.79-3.57
		c3.6-1.11,7.17-2.32,10.78-3.4c0.61-0.19,1.22-0.36,1.83-0.53c0.46-0.12,0.92-0.25,1.38-0.37c1.38-0.36,2.77-0.71,4.15-1.09
		c1.88-0.52,3.75-1.08,5.62-1.62c1.88-0.54,3.75-1.08,5.64-1.56c3.61-0.92,7.26-1.25,10.95-0.27c3.16,0.84,5.7,2.56,7.71,5.1
		c0.65,0.82,1.26,1.67,1.84,2.53c0.24,0.36,0.48,0.47,0.89,0.35c2.17-0.66,4.34-1.32,6.52-1.96c5.42-1.6,10.85-3.2,16.28-4.79
		c4.52-1.34,9.04-2.67,13.57-4c0.21-0.06,0.44-0.05,0.92-0.11c-0.64,1.58-0.47,2.99-0.15,4.39c0.5,2.13,1.05,4.25,2.74,5.85
		c0.62,0.59,0.46,0.94-0.41,1.17c-2.31,0.61-4.64,1.16-6.93,1.86c-3.75,1.13-7.46,2.38-11.2,3.54c-0.74,0.23-1.5,0.43-2.25,0.63
		c-0.33,0.09-0.65,0.17-0.98,0.26c-0.32,0.09-0.64,0.18-0.96,0.27c-0.32,0.1-0.64,0.2-0.96,0.3c-2.99,1-5.96,2.09-8.94,3.13
		c-0.99,0.34-1.96,0.73-2.97,1c-0.44,0.12-0.68,0.31-0.82,0.58c-0.08,0.17-0.12,0.36-0.14,0.59c-0.01,0.07-0.02,0.15-0.02,0.23
		c-0.03,0.58-0.06,1.16-0.1,1.74c-0.03,0.54-0.07,1.07-0.12,1.61c-0.08,1.15-0.19,2.31-0.33,3.46c-0.24,2.14-1.55,3.7-3.05,5.14
		c-0.57,0.54-1.18,1.02-1.83,1.44h5.04c1.31-1.29,2.26-2.88,2.54-4.79c0.29-1.96,0.44-3.94,0.56-5.92c0.04-0.57,0.16-0.78,0.71-0.93
		c1.48-0.41,2.93-0.87,4.39-1.34c3.93-1.27,7.86-2.54,11.79-3.81c1.89-0.61,3.79-1.2,5.67-1.83c2.25-0.75,4.47-1.59,6.74-2.29
		c2.8-0.87,5.64-1.63,8.45-2.46c1.3-0.38,1.51-0.99,0.78-2.15c-0.19-0.3-0.41-0.58-0.64-0.86c-1.4-1.61-2.56-3.34-3.27-5.39
		c-0.85-2.48-0.78-4.91,0.14-7.32c0.23-0.6,0.35-1.16-0.08-1.65c-0.48-0.54-1.09-0.64-1.82-0.41c-2.82,0.88-5.65,1.74-8.5,2.54
		c-1.71,0.49-3.48,0.79-5.19,1.28c-2.48,0.7-4.91,1.54-7.38,2.26c-2.79,0.81-5.6,1.52-8.39,2.31c-2.75,0.78-5.48,1.61-8.22,2.41
		c-1.36,0.39-1.05,0.4-1.8-0.69c-1.93-2.8-4.46-4.85-7.69-5.9c-1.78-0.57-3.66-0.86-5.51-1.17c-1.14-0.19-2.38-0.43-3.47-0.19
		c-3.33,0.73-6.66,1.54-9.9,2.59c-4.35,1.41-8.68,2.85-13.15,3.79c-1.32,0.28-2.64,0.54-3.93,0.91c-2.86,0.83-5.69,1.76-8.54,2.61
		c-1.32,0.38-2.68,0.63-3.99,1.02c-1.22,0.37-2.38,0.92-3.61,1.25c-4.13,1.13-8.3,2.06-12.33,3.6c-2.72,1.04-5.61,1.68-8.41,2.53
		c-2.17,0.66-4.33,1.37-6.48,2.07c-2.38,0.77-4.75,1.53-7.1,2.35c-1.4,0.48-2.71,1.07-3.74,2.26c-0.95,1.09-1.53,2.3-1.92,3.58
		c-0.39,1.27-0.58,2.6-0.76,3.94c-0.1,0.74-0.15,1.47-0.17,2.2C0,37.906,0,38.156,0,38.396c0,0.48,0.01,0.96,0.04,1.44
		c0.01,0.25,0.02,0.49,0.05,0.74c0.01,0.23,0.03,0.46,0.05,0.69"/>
	<path class="st1" d="M145.555,11.142c-0.967-1.955-1.718-3.727-1.635-5.736c0.006-0.102,0.006-0.203,0.019-0.305
		c0.114-0.94,0.308-1.86,1.335-2.218c0.997-0.346,1.74,0.187,2.36,0.877c1.842,2.044,2.59,4.463,2.298,7.188
		c-0.096,0.903-0.637,1.543-1.528,1.831c-0.858,0.274-1.553,0.005-2.108-0.665C145.99,11.741,145.713,11.348,145.555,11.142
		L145.555,11.142z"/>
	<path class="st2" d="M141.2,14.316c-1.69-1.6-2.24-3.72-2.74-5.85c-0.32-1.4-0.49-2.81,0.15-4.39c-0.48,0.06-0.71,0.05-0.92,0.11
		c-4.53,1.33-9.05,2.66-13.57,4c-5.43,1.59-10.86,3.19-16.28,4.79c-2.18,0.64-4.35,1.3-6.52,1.96c-0.41,0.12-0.65,0.01-0.89-0.35
		c-0.58-0.86-1.19-1.71-1.84-2.53c-2.01-2.54-4.55-4.26-7.71-5.1c-3.69-0.98-7.34-0.65-10.95,0.27c-1.89,0.48-3.76,1.02-5.64,1.56
		c-1.87,0.54-3.74,1.1-5.62,1.62c-1.84,0.52-3.69,0.96-5.53,1.46c-0.61,0.17-1.22,0.34-1.83,0.53c-3.61,1.08-7.18,2.29-10.78,3.4
		c-3.93,1.22-7.86,2.39-11.79,3.57c-2.95,0.89-5.9,1.79-8.85,2.67c-2.48,0.74-4.98,1.46-7.47,2.19c-0.83,0.24-1.66,0.49-2.49,0.74
		c-0.76,0.22-1.51,0.46-2.26,0.69c-2.26,0.7-4.52,1.43-6.8,2.08c-1.93,0.55-3.64,1.45-5.08,2.84c-0.44,0.43-0.94,0.97-1.05,1.54
		c-0.42,2.1-0.81,4.02-0.98,6.15c-0.09,1.07-0.08,2,0,3h7.44c0.06-2,0.45-3.77,1.2-5.73c0.34-0.9,0.91-1.41,1.84-1.69
		c3.27-0.96,6.54-1.9,9.81-2.87c3.15-0.92,6.32-1.76,9.46-2.73c3.43-1.06,6.84-2.2,10.25-3.31c1.6-0.52,3.19-1.07,4.79-1.55
		c0.56-0.16,1.14-0.28,1.71-0.4s1.15-0.24,1.72-0.39c3.47-0.91,6.95-1.8,10.4-2.78c3.3-0.94,6.56-2.07,9.88-2.94
		c4.09-1.09,8.22-1.99,12.33-2.96c0.4-0.1,0.83-0.13,1.24-0.2c-2.15,2.63-3.53,5.53-3.96,8.77c-0.27,2.05-0.57,4.17,0.09,6.22
		c0.86,2.62,2.31,4.8,5,5.8c1.67,0.61,3.46,0.53,5.08-0.19c1.12-0.51,2.21-1.22,3.08-2.09c0.65-0.64,1.11-1.63,1.28-2.53
		c0.34-1.83,0.17-3.69-0.76-5.34c-0.77-1.37-1.75-2.54-3.27-3.19c-1.76-0.74-3.31-0.2-4.62,0.87c-2.14,1.74-2.06,4.07-1.37,5.73
		c0.73,1.74,3.28,2.96,5.23,1.27c0.81-0.7,0.92-2.15,0.17-2.91c-0.23-0.23-0.65-0.31-1-0.34c-0.1,0-0.28,0.38-0.35,0.62
		c-0.21,0.77-0.66,1.11-1.44,1.08c-0.73-0.03-0.91-0.52-1.01-1.12c-0.21-1.21-0.08-2.34,1.06-3.03c1.12-0.68,2.18-0.36,3.28,0.3
		c2.24,1.35,2.7,3.76,2.07,5.45c-1.36,3.69-6.21,4.55-8.86,1.67c-1.9-2.06-2.12-5.78-0.88-8.31c1.24-2.55,3.24-3.92,5.94-4.16
		c2.35-0.22,4.33,0.61,5.81,2.61c1.41,1.9,2.3,3.94,2.66,6.26c0.49,3.21-0.26,5.91-2.9,8.03c-2.04,1.64-4.41,2.17-6.86,2.8
		c-4.38,1.12-8.83,2.28-13.12,3.28h22.4c0.87,0,1.69-0.92,2.44-1.63c1.5-1.44,2.81-2.91,3.05-5.05c0.26-2.25,0.44-4.46,0.55-6.71
		c0.03-0.78,0.17-1.2,0.98-1.42c1.01-0.27,1.98-0.65,2.97-0.99c2.98-1.04,5.95-2.13,8.94-3.13c1.69-0.56,3.45-0.92,5.15-1.45
		c3.74-1.16,7.45-2.41,11.2-3.54c2.29-0.7,4.62-1.25,6.93-1.86C141.66,15.256,141.82,14.906,141.2,14.316z"/>
	<path class="st1" d="M96.16,35.186c-2.04,1.64-4.41,2.36-6.86,2.99c-3.99,1.02-8.03,1.84-11.96,3.09H11.22
		c0.09-1.85,0.48-3.71,1.18-5.54c0.34-0.9,0.91-1.5,1.84-1.78c3.27-0.96,6.54-1.95,9.81-2.92c3.15-0.92,6.32-1.79,9.46-2.76
		c3.43-1.06,6.84-2.21,10.25-3.32c1.6-0.52,3.19-1.07,4.79-1.55c0.56-0.16,1.14-0.29,1.71-0.41s1.15-0.24,1.72-0.39
		c3.47-0.91,6.95-1.8,10.4-2.78c3.3-0.94,6.56-2.07,9.88-2.94c4.09-1.09,8.22-1.99,12.33-2.96c0.4-0.1,0.83-0.13,1.24-0.2
		c-2.15,2.63-3.53,5.53-3.96,8.77c-0.27,2.05-0.57,4.17,0.09,6.22c0.86,2.62,2.31,4.8,5,5.8c1.67,0.61,3.46,0.53,5.08-0.19
		c1.12-0.51,2.21-1.22,3.08-2.09c0.65-0.64,1.11-1.63,1.28-2.53c0.34-1.83,0.17-3.69-0.76-5.34c-0.77-1.37-1.75-2.54-3.27-3.19
		c-1.76-0.74-3.31-0.2-4.62,0.87c-2.14,1.74-2.06,4.07-1.37,5.73c0.73,1.74,3.28,2.96,5.23,1.27c0.81-0.7,0.92-2.15,0.17-2.91
		c-0.23-0.23-0.65-0.31-1-0.34c-0.1,0-0.28,0.38-0.35,0.62c-0.21,0.77-0.66,1.11-1.44,1.08c-0.73-0.03-0.91-0.52-1.01-1.12
		c-0.21-1.21-0.08-2.34,1.06-3.03c1.12-0.68,2.18-0.36,3.28,0.3c2.24,1.35,2.7,3.76,2.07,5.45c-1.36,3.69-6.21,4.55-8.86,1.67
		c-1.9-2.06-2.12-5.78-0.88-8.31c1.24-2.55,3.24-3.92,5.94-4.16c2.35-0.22,4.33,0.61,5.81,2.61c1.41,1.9,2.3,3.94,2.66,6.26
		C99.55,30.366,98.8,33.066,96.16,35.186z"/>
</g>
</svg>