<!-- Generator: Adobe Illustrator 19.2.1, SVG Export Plug-In  -->
<svg version="1.1"
	 xmlns="http://www.w3.org/2000/svg" xmlns:xlink="http://www.w3.org/1999/xlink" xmlns:a="http://ns.adobe.com/AdobeSVGViewerExtensions/3.0/"
	 x="0px" y="0px" width="482.835px" height="243.327px" viewBox="0 0 482.835 243.327"
	 style="enable-background:new 0 0 482.835 243.327;" xml:space="preserve">
<style type="text/css">
	.st0{fill:#FFFFFF;stroke:#FFFFFF;stroke-width:2.8346;stroke-miterlimit:10;}
	.st1{fill:#202020;}
</style>
<defs>
</defs>
<g>
	<rect x="1.417" y="1.417" class="st0" width="480" height="240.492"/>
	<g>
		<path class="st1" d="M114.651,187.39l1.811-2.753c1.24,0.992,3.249,1.612,4.762,1.612c0.843,0,1.587-0.248,1.587-0.868
			c0-0.694-0.62-0.917-2.058-1.116c-2.257-0.322-5.458-0.843-5.458-4.291c0-2.976,2.431-4.49,5.432-4.49
			c2.903,0,4.589,0.67,6.202,1.836l-1.811,2.703c-1.439-0.843-2.853-1.339-3.919-1.339c-0.819,0-1.364,0.248-1.364,0.843
			c0,0.62,0.694,0.843,2.033,1.017c2.257,0.297,5.482,0.794,5.482,4.018c0,3.523-3.026,4.738-6.101,4.738
			C118.148,189.3,116.114,188.457,114.651,187.39z"/>
		<path class="st1" d="M128.289,182.404c0-5.531,4.068-6.92,6.994-6.92c3.919,0,5.308,1.984,6.078,4.217l-4.118,1.289
			c-0.422-1.612-1.091-1.984-2.01-1.984c-1.462,0-2.033,1.34-2.033,3.423c0,1.935,0.347,3.473,1.984,3.473
			c0.794,0,1.711-0.397,2.158-2.134l4.067,1.365c-0.768,1.984-2.455,4.167-6.3,4.167C131.984,189.3,128.289,187.861,128.289,182.404
			z"/>
		<path class="st1" d="M142.993,175.732h4.91v2.059h0.026c0.57-0.918,1.711-2.307,4.142-2.307h0.05v4.341
			c-0.199-0.025-0.893-0.099-1.24-0.099c-1.39,0-2.331,0.694-2.977,1.215v8.086h-4.91V175.732z"/>
		<path class="st1" d="M153.903,170.672h4.91v3.771h-4.91V170.672z M153.903,175.732h4.91v13.295h-4.91V175.732z"/>
		<path class="st1" d="M159.953,175.732h5.035l2.331,7.912h0.05l2.357-7.912h4.563l-4.688,13.295h-4.96L159.953,175.732z"/>
		<path class="st1" d="M175.426,170.672h4.91v3.771h-4.91V170.672z M175.426,175.732h4.91v13.295h-4.91V175.732z"/>
		<path class="st1" d="M198.414,187.166c-0.794,1.067-1.984,2.059-3.944,2.059c-3,0-4.96-2.133-4.96-6.697s1.984-7.045,5.01-7.045
			c1.787,0,2.977,0.521,3.895,1.836v-1.587h4.912v18.255h-4.912V187.166z M198.414,184.612v-4.266
			c-0.67-0.595-1.191-0.843-2.034-0.843c-1.464,0-1.959,1.116-1.959,3.001c0,1.637,0.371,3.075,2.008,3.075
			C197.199,185.579,198.017,185.033,198.414,184.612z"/>
		<path class="st1" d="M205.874,185.455v-9.723h4.912v8.235c0,0.917,0.297,1.438,1.117,1.438c0.843,0,1.562-0.422,2.208-0.942
			v-8.731h4.91v13.295h-4.91v-2.034c-0.57,0.918-1.96,2.307-4.415,2.307C207.61,189.3,205.874,188.308,205.874,185.455z"/>
		<path class="st1" d="M221.819,170.672h4.91v3.771h-4.91V170.672z M221.819,175.732h4.91v13.295h-4.91V175.732z"/>
		<path class="st1" d="M236.746,170.672h4.91v3.771h-4.91V170.672z M236.746,175.732h4.91v13.295h-4.91V175.732z"/>
		<path class="st1" d="M244.581,170.672h4.91v18.355h-4.91V170.672z"/>
		<path class="st1" d="M260.5,185.033v-5.779h-2.158v-3.522h2.158v-4.464h4.912v4.464h3.398v3.522h-3.398v4.688
			c0,1.413,0.347,1.761,1.737,1.761c0.421,0,1.065-0.075,1.289-0.149v3.422c-0.248,0.075-2.034,0.223-3.001,0.223
			C260.922,189.2,260.5,187.613,260.5,185.033z"/>
		<path class="st1" d="M270.467,185.455v-9.723h4.912v8.235c0,0.917,0.297,1.438,1.117,1.438c0.844,0,1.562-0.422,2.208-0.942
			v-8.731h4.91v13.295h-4.91v-2.034c-0.57,0.918-1.96,2.307-4.415,2.307C272.204,189.3,270.467,188.308,270.467,185.455z"/>
		<path class="st1" d="M285.568,182.404c0-5.531,3.869-6.92,7.094-6.92c3.199,0,7.094,1.389,7.094,6.92
			c0,5.457-3.895,6.896-7.094,6.896S285.568,187.861,285.568,182.404z M294.845,182.429c0-1.934-0.496-3.423-2.183-3.423
			c-1.612,0-2.182,1.34-2.182,3.423c0,1.935,0.471,3.473,2.182,3.473C294.273,185.902,294.845,184.538,294.845,182.429z"/>
		<path class="st1" d="M309.917,185.033v-5.779h-2.158v-3.522h2.158v-4.464h4.912v4.464h3.398v3.522h-3.398v4.688
			c0,1.413,0.347,1.761,1.737,1.761c0.421,0,1.065-0.075,1.289-0.149v3.422c-0.248,0.075-2.034,0.223-3.001,0.223
			C310.34,189.2,309.917,187.613,309.917,185.033z"/>
		<path class="st1" d="M319.291,182.404c0-5.333,4.291-6.92,6.994-6.92c2.63,0,6.399,0.943,6.399,7.565v0.744h-8.508
			c0.249,1.737,1.216,2.158,2.654,2.158c1.388,0,2.952-0.695,3.819-1.215l1.761,2.976c-1.686,1.091-3.745,1.587-5.953,1.587
			C322.813,189.3,319.291,187.787,319.291,182.404z M328.345,180.99c-0.199-1.587-0.919-2.083-2.084-2.083
			c-0.967,0-1.737,0.57-2.034,2.083H328.345z"/>
		<path class="st1" d="M333.375,187.39l1.811-2.753c1.24,0.992,3.249,1.612,4.762,1.612c0.843,0,1.587-0.248,1.587-0.868
			c0-0.694-0.62-0.917-2.058-1.116c-2.257-0.322-5.456-0.843-5.456-4.291c0-2.976,2.43-4.49,5.431-4.49
			c2.902,0,4.589,0.67,6.202,1.836l-1.811,2.703c-1.439-0.843-2.853-1.339-3.919-1.339c-0.819,0-1.364,0.248-1.364,0.843
			c0,0.62,0.694,0.843,2.033,1.017c2.257,0.297,5.482,0.794,5.482,4.018c0,3.523-3.026,4.738-6.102,4.738
			C336.872,189.3,334.838,188.457,333.375,187.39z"/>
		<path class="st1" d="M348.748,185.033v-5.779h-2.158v-3.522h2.158v-4.464h4.912v4.464h3.398v3.522h-3.398v4.688
			c0,1.413,0.347,1.761,1.737,1.761c0.421,0,1.065-0.075,1.289-0.149v3.422c-0.248,0.075-2.034,0.223-3.001,0.223
			C349.171,189.2,348.748,187.613,348.748,185.033z"/>
		<path class="st1" d="M358.121,182.404c0-5.531,3.869-6.92,7.094-6.92c3.199,0,7.094,1.389,7.094,6.92
			c0,5.457-3.895,6.896-7.094,6.896S358.121,187.861,358.121,182.404z M367.398,182.429c0-1.934-0.496-3.423-2.183-3.423
			c-1.612,0-2.182,1.34-2.182,3.423c0,1.935,0.471,3.473,2.182,3.473C366.826,185.902,367.398,184.538,367.398,182.429z"/>
	</g>
	<g>
		<path class="st1" d="M420.649,55.254h1.191v-4.142c-0.32,0.169-0.79,0.302-1.172,0.302v-1.182
			c0.506-0.017,0.915-0.151,1.208-0.426h1.36v5.448h1.039v1.129h-3.626V55.254z"/>
		<path class="st1" d="M427.715,55.095h-3.192v-1.05l2.995-4.239h1.592v4.151h1.11v1.138h-1.11v1.289h-1.395V55.095z
			 M427.715,53.957V51.53h-0.018l-1.681,2.427H427.715z"/>
		<path class="st1" d="M433.721,55.095h-3.192v-1.05l2.995-4.239h1.592v4.151h1.111v1.138h-1.111v1.289h-1.395V55.095z
			 M433.721,53.957V51.53h-0.018l-1.68,2.427H433.721z"/>
		<path class="st1" d="M428.438,70.266c-9.468,0-17.172-7.704-17.172-17.173h1.974c0,8.381,6.818,15.199,15.197,15.199
			c8.381,0,15.199-6.818,15.199-15.199c0-8.38-6.818-15.196-15.199-15.196v-1.975c9.469,0,17.173,7.704,17.173,17.172
			C445.611,62.562,437.907,70.266,428.438,70.266"/>
	</g>
</g>
</svg>