<!-- Generator: Adobe Illustrator 19.2.1, SVG Export Plug-In  -->
<svg version="1.1"
	 xmlns="http://www.w3.org/2000/svg" xmlns:xlink="http://www.w3.org/1999/xlink" xmlns:a="http://ns.adobe.com/AdobeSVGViewerExtensions/3.0/"
	 x="0px" y="0px" width="351.277px" height="351.991px" viewBox="0 0 351.277 351.991"
	 style="enable-background:new 0 0 351.277 351.991;" xml:space="preserve">
<style type="text/css">
	.st0{fill:#FFFFFF;stroke:#FFFFFF;stroke-width:2.8346;stroke-miterlimit:10;}
	.st1{fill:#202020;}
</style>
<defs>
</defs>
<rect x="1.417" y="1.417" class="st0" width="348.442" height="349.156"/>
<g>
	<path class="st1" d="M83.616,239.305l1.314-1.999c0.9,0.72,2.358,1.17,3.457,1.17c0.612,0,1.152-0.18,1.152-0.63
		c0-0.504-0.45-0.666-1.494-0.81c-1.639-0.234-3.962-0.612-3.962-3.115c0-2.161,1.765-3.259,3.943-3.259
		c2.107,0,3.331,0.486,4.502,1.333l-1.314,1.962c-1.045-0.612-2.071-0.972-2.845-0.972c-0.595,0-0.99,0.18-0.99,0.612
		c0,0.45,0.504,0.612,1.476,0.738c1.639,0.216,3.979,0.576,3.979,2.917c0,2.557-2.196,3.439-4.429,3.439
		C86.155,240.692,84.678,240.079,83.616,239.305z"/>
	<path class="st1" d="M93.516,235.686c0-4.015,2.953-5.023,5.077-5.023c2.845,0,3.854,1.44,4.412,3.061l-2.989,0.936
		c-0.307-1.17-0.792-1.44-1.459-1.44c-1.062,0-1.476,0.973-1.476,2.485c0,1.405,0.252,2.521,1.44,2.521
		c0.576,0,1.242-0.288,1.566-1.549l2.952,0.991c-0.558,1.44-1.782,3.025-4.573,3.025C96.199,240.692,93.516,239.647,93.516,235.686z
		"/>
	<path class="st1" d="M104.19,230.843h3.564v1.495h0.019c0.414-0.667,1.242-1.675,3.007-1.675h0.036v3.151
		c-0.145-0.018-0.648-0.072-0.9-0.072c-1.009,0-1.692,0.504-2.161,0.882v5.87h-3.564V230.843z"/>
	<path class="st1" d="M112.11,227.169h3.564v2.737h-3.564V227.169z M112.11,230.843h3.564v9.651h-3.564V230.843z"/>
	<path class="st1" d="M116.501,230.843h3.655l1.692,5.744h0.036l1.711-5.744h3.312l-3.403,9.651h-3.601L116.501,230.843z"/>
	<path class="st1" d="M127.734,227.169h3.564v2.737h-3.564V227.169z M127.734,230.843h3.564v9.651h-3.564V230.843z"/>
	<path class="st1" d="M144.421,239.143c-0.576,0.774-1.44,1.495-2.863,1.495c-2.178,0-3.601-1.548-3.601-4.861
		s1.44-5.114,3.637-5.114c1.297,0,2.161,0.378,2.827,1.333v-1.152h3.565v13.252h-3.565V239.143z M144.421,237.288v-3.097
		c-0.486-0.432-0.864-0.612-1.477-0.612c-1.062,0-1.422,0.81-1.422,2.179c0,1.188,0.27,2.232,1.458,2.232
		C143.54,237.991,144.133,237.595,144.421,237.288z"/>
	<path class="st1" d="M149.836,237.901v-7.058h3.565v5.978c0,0.666,0.216,1.044,0.811,1.044c0.612,0,1.134-0.306,1.603-0.684v-6.338
		h3.564v9.651h-3.564v-1.477c-0.414,0.667-1.423,1.675-3.205,1.675C151.097,240.692,149.836,239.972,149.836,237.901z"/>
	<path class="st1" d="M161.412,227.169h3.564v2.737h-3.564V227.169z M161.412,230.843h3.564v9.651h-3.564V230.843z"/>
	<path class="st1" d="M172.248,227.169h3.564v2.737h-3.564V227.169z M172.248,230.843h3.564v9.651h-3.564V230.843z"/>
	<path class="st1" d="M177.935,227.169h3.564v13.324h-3.564V227.169z"/>
	<path class="st1" d="M189.491,237.595v-4.195h-1.566v-2.557h1.566v-3.241h3.565v3.241h2.467v2.557h-2.467v3.403
		c0,1.026,0.252,1.278,1.261,1.278c0.306,0,0.773-0.054,0.936-0.108v2.484c-0.18,0.054-1.477,0.162-2.179,0.162
		C189.797,240.619,189.491,239.467,189.491,237.595z"/>
	<path class="st1" d="M196.726,237.901v-7.058h3.565v5.978c0,0.666,0.216,1.044,0.811,1.044c0.612,0,1.134-0.306,1.603-0.684v-6.338
		h3.564v9.651h-3.564v-1.477c-0.414,0.667-1.423,1.675-3.205,1.675C197.987,240.692,196.726,239.972,196.726,237.901z"/>
	<path class="st1" d="M207.688,235.686c0-4.015,2.809-5.023,5.149-5.023c2.322,0,5.149,1.008,5.149,5.023
		c0,3.961-2.827,5.006-5.149,5.006S207.688,239.647,207.688,235.686z M214.422,235.704c0-1.404-0.36-2.485-1.585-2.485
		c-1.17,0-1.584,0.973-1.584,2.485c0,1.405,0.342,2.521,1.584,2.521C214.007,238.225,214.422,237.235,214.422,235.704z"/>
	<path class="st1" d="M225.364,237.595v-4.195h-1.566v-2.557h1.566v-3.241h3.565v3.241h2.467v2.557h-2.467v3.403
		c0,1.026,0.252,1.278,1.261,1.278c0.306,0,0.773-0.054,0.936-0.108v2.484c-0.18,0.054-1.477,0.162-2.179,0.162
		C225.67,240.619,225.364,239.467,225.364,237.595z"/>
	<path class="st1" d="M232.168,235.686c0-3.871,3.115-5.023,5.077-5.023c1.909,0,4.646,0.685,4.646,5.492v0.54h-6.176
		c0.181,1.261,0.883,1.567,1.927,1.567c1.008,0,2.143-0.504,2.772-0.882l1.278,2.161c-1.224,0.792-2.719,1.152-4.321,1.152
		C234.725,240.692,232.168,239.593,232.168,235.686z M238.741,234.66c-0.145-1.152-0.667-1.512-1.513-1.512
		c-0.702,0-1.261,0.414-1.477,1.512H238.741z"/>
	<path class="st1" d="M242.392,239.305l1.314-1.999c0.9,0.72,2.358,1.17,3.457,1.17c0.612,0,1.152-0.18,1.152-0.63
		c0-0.504-0.45-0.666-1.494-0.81c-1.639-0.234-3.961-0.612-3.961-3.115c0-2.161,1.764-3.259,3.942-3.259
		c2.106,0,3.331,0.486,4.502,1.333l-1.314,1.962c-1.045-0.612-2.071-0.972-2.845-0.972c-0.595,0-0.99,0.18-0.99,0.612
		c0,0.45,0.504,0.612,1.476,0.738c1.639,0.216,3.979,0.576,3.979,2.917c0,2.557-2.196,3.439-4.43,3.439
		C244.931,240.692,243.455,240.079,242.392,239.305z"/>
	<path class="st1" d="M253.552,237.595v-4.195h-1.566v-2.557h1.566v-3.241h3.565v3.241h2.467v2.557h-2.467v3.403
		c0,1.026,0.252,1.278,1.261,1.278c0.306,0,0.773-0.054,0.936-0.108v2.484c-0.18,0.054-1.477,0.162-2.179,0.162
		C253.859,240.619,253.552,239.467,253.552,237.595z"/>
	<path class="st1" d="M260.356,235.686c0-4.015,2.809-5.023,5.149-5.023c2.322,0,5.149,1.008,5.149,5.023
		c0,3.961-2.827,5.006-5.149,5.006S260.356,239.647,260.356,235.686z M267.09,235.704c0-1.404-0.36-2.485-1.585-2.485
		c-1.17,0-1.584,0.973-1.584,2.485c0,1.405,0.342,2.521,1.584,2.521C266.675,238.225,267.09,237.235,267.09,235.704z"/>
</g>
<g>
	<path class="st1" d="M306.558,44.66h1.121v-3.898c-0.301,0.159-0.744,0.284-1.103,0.284v-1.113
		c0.476-0.016,0.861-0.142,1.137-0.401h1.28v5.128h0.978v1.063h-3.413V44.66z"/>
	<path class="st1" d="M313.208,44.51h-3.004v-0.988l2.819-3.99h1.498v3.907h1.045v1.071h-1.045v1.213h-1.313V44.51z M313.208,43.439
		v-2.284h-0.017l-1.582,2.284H313.208z"/>
	<path class="st1" d="M318.861,44.51h-3.004v-0.988l2.819-3.99h1.498v3.907h1.046v1.071h-1.046v1.213h-1.313V44.51z M318.861,43.439
		v-2.284h-0.017l-1.581,2.284H318.861z"/>
	<path class="st1" d="M313.889,58.79c-8.911,0-16.162-7.251-16.162-16.163h1.858c0,7.888,6.417,14.305,14.304,14.305
		c7.888,0,14.305-6.417,14.305-14.305c0-7.887-6.417-14.303-14.305-14.303v-1.859c8.912,0,16.163,7.251,16.163,16.162
		C330.052,51.539,322.801,58.79,313.889,58.79"/>
</g>
</svg>