<!-- Generator: Adobe Illustrator 21.1.0, SVG Export Plug-In  -->
<svg version="1.1"
	 xmlns="http://www.w3.org/2000/svg" xmlns:xlink="http://www.w3.org/1999/xlink" xmlns:a="http://ns.adobe.com/AdobeSVGViewerExtensions/3.0/"
	 x="0px" y="0px" width="66px" height="110.626px" viewBox="0 0 66 110.626" style="enable-background:new 0 0 66 110.626;"
	 xml:space="preserve">
<style type="text/css">
	.st0{fill:#FFFFFF;}
</style>
<defs>
</defs>
<g>
	<path class="st0" d="M55.208,109.126c-2.41,0-4.675-0.938-6.379-2.643L4.141,61.791C2.438,60.087,1.5,57.822,1.5,55.413
		c0-2.409,0.939-4.674,2.643-6.377c0.113-0.113,0.235-0.211,0.36-0.305L49.104,4.143C50.806,2.439,53.071,1.5,55.481,1.5
		s4.675,0.938,6.377,2.643C63.562,5.846,64.5,8.11,64.5,10.519c0,2.409-0.938,4.674-2.642,6.377L23.306,55.446l38.28,38.284
		c1.704,1.704,2.642,3.969,2.641,6.378c0,2.409-0.939,4.674-2.643,6.376C59.883,108.188,57.618,109.126,55.208,109.126z"/>
	<path d="M55.481,3c1.925,0,3.849,0.734,5.316,2.203c2.937,2.937,2.937,7.695,0,10.633L21.185,55.446l39.34,39.344
		c2.936,2.937,2.936,7.698-0.001,10.633c-1.467,1.469-3.392,2.203-5.316,2.203c-1.924,0-3.849-0.734-5.318-2.203L5.202,60.731
		c-2.936-2.937-2.936-7.698,0.001-10.633c0.11-0.11,0.239-0.187,0.354-0.289L50.164,5.203C51.632,3.734,53.556,3,55.481,3 M55.481,0
		c-2.811,0-5.453,1.095-7.439,3.083L3.556,47.567C3.422,47.67,3.258,47.8,3.08,47.978C1.095,49.961,0,52.603,0,55.413
		c0,2.81,1.093,5.451,3.08,7.439l44.689,44.693c1.987,1.987,4.629,3.082,7.439,3.082c2.811,0,5.453-1.095,7.439-3.083
		c1.986-1.984,3.08-4.625,3.081-7.435c0-2.81-1.093-5.451-3.08-7.439l-37.22-37.223l37.491-37.49C64.906,15.97,66,13.328,66,10.519
		s-1.094-5.451-3.082-7.438C60.934,1.095,58.292,0,55.481,0L55.481,0z"/>
</g>
</svg>