<!-- Generator: Adobe Illustrator 19.2.1, SVG Export Plug-In  -->
<svg version="1.1"
	 xmlns="http://www.w3.org/2000/svg" xmlns:xlink="http://www.w3.org/1999/xlink" xmlns:a="http://ns.adobe.com/AdobeSVGViewerExtensions/3.0/"
	 x="0px" y="0px" width="197.688px" height="238.998px" viewBox="0 0 197.688 238.998"
	 style="enable-background:new 0 0 197.688 238.998;" xml:space="preserve">
<style type="text/css">
	.st0{fill:#202020;}
	.st1{fill:#E42621;}
	.st2{fill:#FFFFFF;}
</style>
<defs>
</defs>
<g>
	<path class="st0" d="M83.547,43.854c0.521,0.207,1.272-0.233,1.17,0.819c-0.145,0.805-0.416,1.525-0.75,2.196
		c-0.163,0.338-0.358,0.66-0.574,0.976c-0.205,0.314-0.426,0.621-0.64,0.931c-0.865,1.237-1.718,2.456-2.084,4.063
		c0.241,0.182,0.49,0.377,0.736,0.568c-0.71,1.077-1.451,2.165-2.201,3.264c-0.753,1.097-1.49,2.213-2.319,3.317
		c-0.529,1.125-1.062,2.251-1.591,3.371l-0.78,1.69c-0.276,0.56-0.567,1.113-0.847,1.673c-0.562,1.116-1.119,2.232-1.68,3.347
		l-0.826,1.678c-0.269,0.565-0.588,1.107-0.878,1.662c0.352,0.054,0.648,0.159,0.487,0.648c-0.444,0.953-1.118,2.005-1.882,3.132
		c-0.775,1.125-1.603,2.338-2.508,3.554c-0.207,0.402-0.413,0.797-0.612,1.189c-0.028,0.395,0.185,0.643,0.319,0.794
		c-0.791,1.119-1.541,2.083-2.249,2.964c-0.822,1.686-1.771,3.305-2.685,4.964c-0.918,1.661-1.837,3.329-2.76,5.003
		c-0.985,1.65-1.975,3.303-2.968,4.967c-0.498,0.837-1.001,1.675-1.501,2.514l-0.755,1.264c-0.249,0.427-0.528,0.831-0.792,1.247
		c-1.072,1.664-2.148,3.336-3.238,5.02c-1.088,1.687-2.168,3.406-3.361,5.068c-1.169,1.681-2.35,3.375-3.538,5.082
		c-0.599,0.859-1.202,1.718-1.806,2.584c-0.623,0.851-1.265,1.692-1.901,2.545c-0.939,1.578-1.882,3.157-2.856,4.691
		c-0.487,0.766-0.984,1.519-1.491,2.259c-0.254,0.369-0.511,0.733-0.769,1.088c-0.265,0.357-0.543,0.697-0.817,1.037
		c-1.718,1.922-3.856,3.927-6.019,5.884c-1.088,0.973-2.156,1.953-3.231,2.863c-1.076,0.907-2.108,1.782-3.051,2.615
		c1.382,0.897,0.081,3.712-1.082,6.405c-1.158,2.694-2.185,5.266-0.188,5.616c-2.595,2.204-6.525,5.467-6.123,6.32
		c0.595,1.275,0.912,2.928,0.349,5.176c-0.282,1.119-0.786,2.392-1.586,3.832c-0.82,1.412-1.947,2.99-3.449,4.755
		c-2.518,2.578-7.481,5.199-8.107,6.424c-0.987,1.936,4.791-1.477,3.806,0.456c5.294-4.086,10.536-8.133,15.492-12.522
		c2.492-2.17,4.993-4.316,7.436-6.536c2.405-2.265,4.81-4.526,7.213-6.791c9.503-9.195,18.732-18.736,27.744-29.003
		c0.322-0.489,0.784-1.132,1.374-1.907c0.593-0.769,1.262-1.729,2.059-2.782c0.792-1.055,1.69-2.234,2.677-3.512
		c0.492-0.637,1.009-1.301,1.544-1.991c0.529-0.693,1.105-1.384,1.648-2.146c1.108-1.502,2.283-3.091,3.508-4.751
		c1.219-1.67,2.543-3.354,3.787-5.202c1.272-1.818,2.578-3.689,3.905-5.591c0.33-0.478,0.674-0.95,1.001-1.435
		c0.319-0.489,0.64-0.985,0.962-1.477c0.641-0.992,1.292-1.986,1.943-2.982c0.651-0.998,1.301-1.995,1.953-2.995
		c0.335-0.497,0.643-1.007,0.953-1.524l0.928-1.538c0.618-1.023,1.234-2.042,1.848-3.062c0.307-0.507,0.615-1.015,0.922-1.516
		c0.303-0.509,0.616-1.004,0.892-1.527c1.147-2.058,2.274-4.086,3.371-6.058c0.565-0.976,1.057-1.986,1.56-2.965
		c0.501-0.982,0.99-1.95,1.472-2.894c0.476-0.948,0.962-1.866,1.407-2.783c0.43-0.926,0.85-1.829,1.253-2.707
		c0.409-0.879,0.805-1.731,1.189-2.554c0.38-0.827,0.769-1.613,1.082-2.402c0.665-1.563,1.272-2.998,1.818-4.284
		c0.274-0.643,0.543-1.242,0.775-1.812c0.226-0.577,0.436-1.11,0.63-1.599c0.157-0.487,0.313-0.97,0.472-1.454
		c0.403-1.076,0.811-2.179,1.216-3.311c0.36-1.15,0.719-2.326,1.069-3.508c0.174-0.596,0.349-1.191,0.523-1.787l0.257-0.897
		l0.215-0.918c0.288-1.222,0.562-2.445,0.819-3.661c0.28-1.206,0.464-2.442,0.641-3.645c0.174-1.206,0.344-2.389,0.467-3.547
		c0.093-1.171,0.165-2.31,0.213-3.404c0.026-0.548,0.042-1.083,0.054-1.609c0-0.529-0.019-1.048-0.036-1.55
		c-0.086-0.932-0.182-1.863-0.286-2.794l-0.079-0.696l-0.11-0.705l-0.227-1.406c-0.164-0.935-0.302-1.86-0.498-2.789
		c-0.206-0.928-0.406-1.852-0.61-2.78c-0.562,1.703-1.097,3.253-1.729,4.551c0.037-0.456,0.075-0.909,0.112-1.357
		c0.027-0.455,0.034-0.903,0.048-1.343c0.025-0.883,0.039-1.731,0.03-2.508c-0.062-1.561-0.237-2.838-0.538-3.532
		c-0.904-3.899-1.807-4.635-2.579-4.056c-0.753,0.59-1.589,2.464-2.575,3.926c-0.444,1.037-1.057,0.873-1.659,0.864
		c-0.607-0.016-1.213,0.124-1.661,1.65c0.009-2.192-0.04-3.283-0.177-5.474c-0.445-0.082-0.213,1.577-0.065,3.094
		c0.095,1.524,0.09,2.892-0.668,2.15c0.075-0.521,0.09-1.062,0.075-1.608c-0.008-0.551-0.104-1.097-0.181-1.644
		c-0.084-0.551-0.173-1.105-0.258-1.653c-0.101-0.543-0.187-1.082-0.237-1.614c-0.285,0.223-0.403,0.791-0.444,1.514
		c-0.04,0.727-0.059,1.617-0.05,2.472v0.629c-0.013,0.209-0.02,0.414-0.033,0.606c-0.028,0.386-0.062,0.742-0.114,1.037
		c-0.103,0.59-0.269,0.942-0.576,0.862c-0.076-0.282-0.02-0.795,0.083-1.412c0.054-0.314,0.114-0.652,0.177-0.998
		c0.058-0.347,0.1-0.699,0.142-1.052c0.078-0.702,0.129-1.39,0.05-1.907c-0.093-0.517-0.297-0.872-0.685-0.929
		c-0.154-0.025-0.184,0.482-0.165,1.121c-0.008,0.649,0.028,1.43,0.054,1.949c-0.121-0.795-0.227-1.55-0.384-2.232
		c-0.167-0.676-0.336-1.294-0.511-1.838c-0.389-1.069-0.778-1.851-1.172-2.23c-0.803-0.752-1.382-0.076-1.823,2.69
		c-0.111-0.922-0.096-2.066-0.19-3.163l-0.031-0.419l-0.047-0.392c-0.036-0.261-0.072-0.526-0.115-0.775
		c-0.051-0.229-0.106-0.453-0.167-0.669c-0.03-0.096-0.059-0.167-0.092-0.249L94.164,0c-0.002,0.016,0,0.037,0.003,0.058
		c-0.005,0-0.017,0.003-0.023,0.003c0.087,0.803,0.24,2.184,0.324,2.923l-0.139-0.792l-0.162-0.753
		c-0.048-0.262-0.111-0.479-0.165-0.708l-0.083-0.325l-0.068-0.255c-0.168,0.182-0.335,0.328-0.487,0.551
		c0,0.352,0.011,0.682,0.034,1.082c0.028,0.378,0.075,0.753,0.137,1.171l-0.086-0.517l-0.103-0.481l-0.1-0.489
		c-0.034-0.162-0.073-0.29-0.109-0.439c-0.083,0.137-0.168,0.277-0.257,0.423c-0.087,0.153-0.173,0.316-0.255,0.476
		c-0.17,0.33-0.316,0.637-0.475,0.998c-0.129,0.644-0.263,1.247-0.453,1.885c-0.182,0.626-0.346,1.202-0.539,1.776
		c-0.182,0.565-0.335,1.082-0.436,1.541c-0.121,0.469-0.191,0.881-0.176,1.222l0.006,1.031c0,0.347-0.023,0.702-0.034,1.052
		c-0.034,0.705-0.034,1.395-0.086,2.111c-0.118,1.426-0.19,2.836-0.394,4.282c-0.093,0.721-0.151,1.432-0.266,2.154l-0.347,2.165
		l-0.17,1.086c-0.058,0.361-0.145,0.724-0.213,1.088l-0.437,2.175C87.382,32.292,85.621,38.103,83.547,43.854"/>
	<path class="st0" d="M113.196,136.745c0.408-0.38,0.521-1.057,1.147-0.795c1.768,1.024,1.553,3.462,3.325,4.487
		c0.244-0.181,0.495-0.356,0.742-0.535c0.805,1.349,1.567,2.83,2.414,4.277c2.204,2.025,4.46,3.979,6.766,5.864
		c0.179-0.285,0.369-0.525,0.663-0.4c1.043,0.702,2.022,2.134,3.203,3.451c0.221,0.149,0.444,0.297,0.661,0.444
		c0.282,0.003,0.545-0.182,0.703-0.294c0.543,0.582,0.984,1.147,1.381,1.683c7.397,4.898,15.106,9.671,23.32,14.982
		c2.022,0.847,4.041,1.693,5.686,2.806c2.283,1.796,4.458,4.816,6.372,6.877c1.966-2.542,7.917,1.216,9.247-2.016
		c1.275,1.374,3.188,3.442,3.93,2.909c2.235-1.589,5.474-2.757,10.15-0.38c1.647,1.113,2.948,4.028,3.824,4.131
		c1.381,0.159-0.426-3.124,0.954-2.968c-9.528-10.933-20.206-19.98-30.482-30.32c-4.511-2.522-28.589-25.778-34.211-32.298
		c-0.196-0.177-0.389-0.35-0.579-0.525c-3.189-3.443-7.383-7.305-11.05-9.263c-1.821-0.763-3.778-1.432-5.705-2.118
		c0.23,0.976,0.417,1.907,0.532,2.758c-1.278-1.378-2.553-2.755-3.471-2.858c-3.79-1.873-3.33,0.851-3.79,3.463
		c0.104,1.449-1.989,1.412-1.457,3.32c-0.847-0.92-1.272-1.378-2.123-2.297c-0.746,0.534,3.046,2.402,1.381,2.828
		c-0.604-1.094-1.946-1.661-2.797-2.578c-0.568,1.167,2.729,3.385,1.736,4.095c-0.676-0.28-1.311-3.636-2.551-2.752
		c-0.249,0.181,0.601,1.094,1.024,1.553c-3.043-2.399-5.562-2.894-4.251,0.741c-0.827-0.893-1.589-2.559-2.646-3.328
		c-0.005,0.006-0.006,0.016-0.013,0.023c0.419,0.49,0.982,1.494,1.387,1.932c-0.5-0.535-0.995-1.077-1.493-1.611
		c-0.068,0.23-0.126,0.467-0.176,0.711c0.252,0.517,0.534,1.009,0.92,1.429c-0.328-0.356-0.658-0.714-0.99-1.071
		c-0.09,0.602-0.134,1.233-0.126,1.866c0.532,1.908,0.694,4.081,1.329,4.768C102.919,125.593,107.927,131.327,113.196,136.745"/>
	<path class="st1" d="M143.202,75.122c-0.255-0.498-0.666-0.912-0.548-1.262c0.498-0.856,1.971,0.49,2.47-0.367
		c-0.121-0.277-0.243-0.553-0.366-0.828c0.756,0.04,1.592,0.174,2.405,0.226c1.069-0.702,2.098-1.474,3.079-2.322
		c-0.182-0.275-0.338-0.537-0.282-0.704c0.353-0.454,1.149-0.512,1.86-0.777c0.078-0.097,0.149-0.195,0.224-0.288
		c-0.016-0.213-0.142-0.503-0.221-0.682c0.316-0.131,0.626-0.195,0.922-0.237c2.461-3.278,4.827-6.857,7.484-10.56
		c0.383-1.13,0.76-2.262,1.32-2.982c0.932-0.872,2.598-1.073,3.714-1.535c-1.645-2.733,0.224-5.456-1.79-8.038
		c0.741-0.307,1.857-0.769,1.493-1.591c-1.091-2.477-1.991-5.516-0.864-7.934c0.56-0.724,2.221-0.302,2.226-0.925
		c0.008-0.976-1.838-1.185-1.832-2.164c-5.938,1.981-10.67,5.758-16.205,8.597c-1.219,2.226-13.607,9.352-17.149,10.49l-0.277,0.187
		c-1.859,0.771-3.902,2.101-4.842,3.955c-0.341,1.02-0.618,2.19-0.907,3.333c0.57,0.294,1.115,0.602,1.616,0.925
		c-0.742,0.31-1.485,0.616-1.493,1.267c-0.876,1.989,0.721,2.956,2.311,4.573c0.858,0.62,0.97,2.201,2.072,2.718
		c-0.49,0.207-0.738,0.307-1.236,0.512c0.367,0.828,1.244-1.163,1.603,0.314c-0.616-0.068-0.872,0.685-1.367,0.887
		c0.733,0.998,1.854-0.444,2.341,0.66c-0.125,0.377-2.09-0.763-1.487,0.612c0.123,0.277,0.618,0.073,0.865-0.031
		c-1.244,1.164-1.379,2.849,0.71,3.61c-0.482,0.198-1.43-0.028-1.823,0.406l0.016,0.022c0.266-0.083,0.83-0.028,1.065-0.125
		l-0.867,0.361c0.14,0.165,0.285,0.322,0.434,0.478c0.296,0.058,0.573,0.083,0.797-0.012l-0.576,0.238
		c0.366,0.361,0.742,0.699,1.122,1.002c1.108,0.515,2.396,1.444,2.768,1.293C137.183,77.568,140.293,76.518,143.202,75.122"/>
	<path class="st1" d="M37.973,75.122c0.255-0.498,0.666-0.912,0.548-1.262c-0.501-0.856-1.971,0.49-2.469-0.367
		c0.12-0.277,0.241-0.553,0.363-0.828c-0.757,0.04-1.591,0.174-2.405,0.226c-1.071-0.702-2.1-1.474-3.077-2.322
		c0.181-0.275,0.335-0.537,0.279-0.704c-0.353-0.454-1.147-0.512-1.86-0.777c-0.075-0.097-0.149-0.195-0.221-0.288
		c0.013-0.213,0.139-0.503,0.218-0.682c-0.316-0.131-0.623-0.195-0.92-0.237c-2.461-3.278-4.825-6.857-7.485-10.56
		c-0.38-1.13-0.758-2.262-1.32-2.982c-0.929-0.872-2.596-1.073-3.711-1.535c1.644-2.733-0.224-5.456,1.787-8.038
		c-0.739-0.307-1.855-0.769-1.49-1.591c1.09-2.477,1.992-5.516,0.862-7.937c-0.56-0.721-2.22-0.3-2.227-0.922
		c-0.008-0.976,1.843-1.185,1.835-2.164c5.935,1.981,10.67,5.758,16.202,8.597c1.222,2.226,13.607,9.352,17.152,10.49l0.279,0.187
		c1.857,0.771,3.901,2.104,4.838,3.955c0.342,1.024,0.62,2.19,0.909,3.333c-0.57,0.294-1.111,0.602-1.614,0.925
		c0.742,0.31,1.485,0.616,1.49,1.267c0.879,1.989-0.718,2.956-2.307,4.573c-0.859,0.62-0.97,2.201-2.076,2.718
		c0.495,0.207,0.741,0.307,1.237,0.512c-0.366,0.828-1.242-1.163-1.602,0.314c0.616-0.068,0.869,0.685,1.364,0.887
		c-0.732,0.998-1.854-0.444-2.338,0.66c0.123,0.377,2.091-0.76,1.483,0.612c-0.121,0.277-0.615,0.073-0.862-0.031
		c1.242,1.164,1.378,2.849-0.713,3.61c0.483,0.198,1.434-0.028,1.826,0.406l-0.017,0.022c-0.268-0.083-0.831-0.028-1.066-0.123
		l0.869,0.36c-0.142,0.165-0.288,0.322-0.436,0.478c-0.293,0.058-0.57,0.083-0.797-0.012l0.579,0.238
		c-0.366,0.361-0.746,0.699-1.124,1.002c-1.108,0.515-2.394,1.444-2.764,1.293C43.992,77.568,40.879,76.518,37.973,75.122"/>
	<path class="st1" d="M17.335,194.582h7.333v16.621c2.011-2.131,5.797-4.85,11.473-4.85c5.501,0,9.048,3.253,9.048,9.462v22.533
		h-7.333v-20.701c0-3.49-1.479-5.085-4.673-5.085s-5.854,1.656-8.516,4.08v21.706h-7.333V194.582z"/>
	<path class="st1" d="M51.227,222.676c0-11.592,7.63-16.322,15.318-16.322c7.629,0,15.316,4.73,15.316,16.322
		c0,11.473-7.688,16.322-15.316,16.322C58.916,238.998,51.227,234.15,51.227,222.676 M74.529,222.676
		c0-5.856-2.484-10.114-7.984-10.114c-5.264,0-7.984,3.786-7.984,10.114c0,5.969,2.425,10.23,7.984,10.23
		C71.808,232.906,74.529,229.122,74.529,222.676"/>
	<path class="st1" d="M88.255,206.944h7.333v4.259c2.011-2.131,5.795-4.849,11.473-4.849c5.499,0,9.047,3.252,9.047,9.461v22.533
		h-7.331v-20.701c0-3.49-1.48-5.085-4.673-5.085c-3.194,0-5.854,1.656-8.516,4.08v21.706h-7.333V206.944z"/>
	<path class="st1" d="M122.146,222.676c0-11.592,7.63-16.322,15.318-16.322c7.629,0,15.318,4.73,15.318,16.322
		c0,11.473-7.689,16.322-15.318,16.322S122.146,234.15,122.146,222.676 M145.448,222.676c0-5.856-2.484-10.114-7.984-10.114
		c-5.264,0-7.984,3.786-7.984,10.114c0,5.969,2.425,10.23,7.984,10.23C142.729,232.906,145.448,229.122,145.448,222.676"/>
	<path class="st1" d="M157.399,222.676c0-11.592,7.63-16.322,15.318-16.322c7.63,0,15.317,4.73,15.317,16.322
		c0,11.473-7.686,16.322-15.317,16.322C165.088,238.998,157.399,234.15,157.399,222.676 M180.7,222.676
		c0-5.856-2.484-10.114-7.984-10.114c-5.264,0-7.984,3.786-7.984,10.114c0,5.969,2.425,10.23,7.984,10.23
		C177.979,232.906,180.7,229.122,180.7,222.676"/>
	<path class="st2" d="M83.547,43.854c0.521,0.207,1.272-0.233,1.17,0.819c-0.145,0.805-0.416,1.525-0.75,2.196
		c-0.163,0.338-0.358,0.66-0.574,0.976c-0.205,0.314-0.426,0.621-0.64,0.931c-0.865,1.237-1.718,2.456-2.084,4.063
		c0.241,0.182,0.49,0.377,0.736,0.568c-0.71,1.077-1.451,2.165-2.201,3.264c-0.753,1.097-1.49,2.213-2.319,3.317
		c-0.529,1.125-1.062,2.251-1.591,3.371l-0.78,1.69c-0.276,0.56-0.567,1.113-0.847,1.673c-0.562,1.116-1.119,2.232-1.68,3.347
		l-0.826,1.678c-0.269,0.565-0.588,1.107-0.878,1.662c0.352,0.054,0.648,0.159,0.487,0.648c-0.444,0.953-1.118,2.005-1.882,3.132
		c-0.775,1.125-1.603,2.338-2.508,3.554c-0.207,0.402-0.413,0.797-0.612,1.189c-0.028,0.395,0.185,0.643,0.319,0.794
		c-0.791,1.119-1.541,2.083-2.249,2.964c-0.822,1.686-1.771,3.305-2.685,4.964c-0.918,1.661-1.837,3.329-2.76,5.003
		c-0.985,1.65-1.975,3.303-2.968,4.967c-0.498,0.837-1.001,1.675-1.501,2.514l-0.755,1.264c-0.249,0.427-0.528,0.831-0.792,1.247
		c-1.072,1.664-2.148,3.336-3.238,5.02c-1.088,1.687-2.168,3.406-3.361,5.068c-1.169,1.681-2.35,3.375-3.538,5.082
		c-0.599,0.859-1.202,1.718-1.806,2.584c-0.623,0.851-1.265,1.692-1.901,2.545c-0.939,1.578-1.882,3.157-2.856,4.691
		c-0.487,0.766-0.984,1.519-1.491,2.259c-0.254,0.369-0.511,0.733-0.769,1.088c-0.265,0.357-0.543,0.697-0.817,1.037
		c-1.718,1.922-3.856,3.927-6.019,5.884c-1.088,0.973-2.156,1.953-3.231,2.863c-1.076,0.907-2.108,1.782-3.051,2.615
		c1.382,0.897,0.081,3.712-1.082,6.405c-1.158,2.694-2.185,5.266-0.188,5.616c-2.595,2.204-6.525,5.467-6.123,6.32
		c0.595,1.275,0.912,2.928,0.349,5.176c-0.282,1.119-0.786,2.392-1.586,3.832c-0.82,1.412-1.947,2.99-3.449,4.755
		c-2.518,2.578-7.481,5.199-8.107,6.424c-0.987,1.936,4.791-1.477,3.806,0.456c5.294-4.086,10.536-8.133,15.492-12.522
		c2.492-2.17,4.993-4.316,7.436-6.536c2.405-2.265,4.81-4.526,7.213-6.791c9.503-9.195,18.732-18.736,27.744-29.003
		c0.322-0.489,0.784-1.132,1.374-1.907c0.593-0.769,1.262-1.729,2.059-2.782c0.792-1.055,1.69-2.234,2.677-3.512
		c0.492-0.637,1.009-1.301,1.544-1.991c0.529-0.693,1.105-1.384,1.648-2.146c1.108-1.502,2.283-3.091,3.508-4.751
		c1.219-1.67,2.543-3.354,3.787-5.202c1.272-1.818,2.578-3.689,3.905-5.591c0.33-0.478,0.674-0.95,1.001-1.435
		c0.319-0.489,0.64-0.985,0.962-1.477c0.641-0.992,1.292-1.986,1.943-2.982c0.651-0.998,1.301-1.995,1.953-2.995
		c0.335-0.497,0.643-1.007,0.953-1.524l0.928-1.538c0.618-1.023,1.234-2.042,1.848-3.062c0.307-0.507,0.615-1.015,0.922-1.516
		c0.303-0.509,0.616-1.004,0.892-1.527c1.147-2.058,2.274-4.086,3.371-6.058c0.565-0.976,1.057-1.986,1.56-2.965
		c0.501-0.982,0.99-1.95,1.472-2.894c0.476-0.948,0.962-1.866,1.407-2.783c0.43-0.926,0.85-1.829,1.253-2.707
		c0.409-0.879,0.805-1.731,1.189-2.554c0.38-0.827,0.769-1.613,1.082-2.402c0.665-1.563,1.272-2.998,1.818-4.284
		c0.274-0.643,0.543-1.242,0.775-1.812c0.226-0.577,0.436-1.11,0.63-1.599c0.157-0.487,0.313-0.97,0.472-1.454
		c0.403-1.076,0.811-2.179,1.216-3.311c0.36-1.15,0.719-2.326,1.069-3.508c0.174-0.596,0.349-1.191,0.523-1.787l0.257-0.897
		l0.215-0.918c0.288-1.222,0.562-2.445,0.819-3.661c0.28-1.206,0.464-2.442,0.641-3.645c0.174-1.206,0.344-2.389,0.467-3.547
		c0.093-1.171,0.165-2.31,0.213-3.404c0.026-0.548,0.042-1.083,0.054-1.609c0-0.529-0.019-1.048-0.036-1.55
		c-0.086-0.932-0.182-1.863-0.286-2.794l-0.079-0.696l-0.11-0.705l-0.227-1.406c-0.164-0.935-0.302-1.86-0.498-2.789
		c-0.206-0.928-0.406-1.852-0.61-2.78c-0.562,1.703-1.097,3.253-1.729,4.551c0.037-0.456,0.075-0.909,0.112-1.357
		c0.027-0.455,0.034-0.903,0.048-1.343c0.025-0.883,0.039-1.731,0.03-2.508c-0.062-1.561-0.237-2.838-0.538-3.532
		c-0.904-3.899-1.807-4.635-2.579-4.056c-0.753,0.59-1.589,2.464-2.575,3.926c-0.444,1.037-1.057,0.873-1.659,0.864
		c-0.607-0.016-1.213,0.124-1.661,1.65c0.009-2.192-0.04-3.283-0.177-5.474c-0.445-0.082-0.213,1.577-0.065,3.094
		c0.095,1.524,0.09,2.892-0.668,2.15c0.075-0.521,0.09-1.062,0.075-1.608c-0.008-0.551-0.104-1.097-0.181-1.644
		c-0.084-0.551-0.173-1.105-0.258-1.653c-0.101-0.543-0.187-1.082-0.237-1.614c-0.285,0.223-0.403,0.791-0.444,1.514
		c-0.04,0.727-0.059,1.617-0.05,2.472v0.629c-0.013,0.209-0.02,0.414-0.033,0.606c-0.028,0.386-0.062,0.742-0.114,1.037
		c-0.103,0.59-0.269,0.942-0.576,0.862c-0.076-0.282-0.02-0.795,0.083-1.412c0.054-0.314,0.114-0.652,0.177-0.998
		c0.058-0.347,0.1-0.699,0.142-1.052c0.078-0.702,0.129-1.39,0.05-1.907c-0.093-0.517-0.297-0.872-0.685-0.929
		c-0.154-0.025-0.184,0.482-0.165,1.121c-0.008,0.649,0.028,1.43,0.054,1.949c-0.121-0.795-0.227-1.55-0.384-2.232
		c-0.167-0.676-0.336-1.294-0.511-1.838c-0.389-1.069-0.778-1.851-1.172-2.23c-0.803-0.752-1.382-0.076-1.823,2.69
		c-0.111-0.922-0.096-2.066-0.19-3.163l-0.031-0.419l-0.047-0.392c-0.036-0.261-0.072-0.526-0.115-0.775
		c-0.051-0.229-0.106-0.453-0.167-0.669c-0.03-0.096-0.059-0.167-0.092-0.249L94.164,0c-0.002,0.016,0,0.037,0.003,0.058
		c-0.005,0-0.017,0.003-0.023,0.003c0.087,0.803,0.24,2.184,0.324,2.923l-0.139-0.792l-0.162-0.753
		c-0.048-0.262-0.111-0.479-0.165-0.708l-0.083-0.325l-0.068-0.255c-0.168,0.182-0.335,0.328-0.487,0.551
		c0,0.352,0.011,0.682,0.034,1.082c0.028,0.378,0.075,0.753,0.137,1.171l-0.086-0.517l-0.103-0.481l-0.1-0.489
		c-0.034-0.162-0.073-0.29-0.109-0.439c-0.083,0.137-0.168,0.277-0.257,0.423c-0.087,0.153-0.173,0.316-0.255,0.476
		c-0.17,0.33-0.316,0.637-0.475,0.998c-0.129,0.644-0.263,1.247-0.453,1.885c-0.182,0.626-0.346,1.202-0.539,1.776
		c-0.182,0.565-0.335,1.082-0.436,1.541c-0.121,0.469-0.191,0.881-0.176,1.222l0.006,1.031c0,0.347-0.023,0.702-0.034,1.052
		c-0.034,0.705-0.034,1.395-0.086,2.111c-0.118,1.426-0.19,2.836-0.394,4.282c-0.093,0.721-0.151,1.432-0.266,2.154l-0.347,2.165
		l-0.17,1.086c-0.058,0.361-0.145,0.724-0.213,1.088l-0.437,2.175C87.382,32.292,85.621,38.103,83.547,43.854"/>
	<path class="st2" d="M113.196,136.745c0.408-0.38,0.521-1.057,1.147-0.795c1.768,1.024,1.553,3.462,3.325,4.487
		c0.244-0.181,0.495-0.356,0.742-0.535c0.805,1.349,1.567,2.83,2.414,4.277c2.204,2.025,4.46,3.979,6.766,5.864
		c0.179-0.285,0.369-0.525,0.663-0.4c1.043,0.702,2.022,2.134,3.203,3.451c0.221,0.149,0.444,0.297,0.661,0.444
		c0.282,0.003,0.545-0.182,0.703-0.294c0.543,0.582,0.984,1.147,1.381,1.683c7.397,4.898,15.106,9.671,23.32,14.982
		c2.022,0.847,4.041,1.693,5.686,2.806c2.283,1.796,4.458,4.816,6.372,6.877c1.966-2.542,7.917,1.216,9.247-2.016
		c1.275,1.374,3.188,3.442,3.93,2.909c2.235-1.589,5.474-2.757,10.15-0.38c1.647,1.113,2.948,4.028,3.824,4.131
		c1.381,0.159-0.426-3.124,0.954-2.968c-9.528-10.933-20.206-19.98-30.482-30.32c-4.511-2.522-28.589-25.778-34.211-32.298
		c-0.196-0.177-0.389-0.35-0.579-0.525c-3.189-3.443-7.383-7.305-11.05-9.263c-1.821-0.763-3.778-1.432-5.705-2.118
		c0.23,0.976,0.417,1.907,0.532,2.758c-1.278-1.378-2.553-2.755-3.471-2.858c-3.79-1.873-3.33,0.851-3.79,3.463
		c0.104,1.449-1.989,1.412-1.457,3.32c-0.847-0.92-1.272-1.378-2.123-2.297c-0.746,0.534,3.046,2.402,1.381,2.828
		c-0.604-1.094-1.946-1.661-2.797-2.578c-0.568,1.167,2.729,3.385,1.736,4.095c-0.676-0.28-1.311-3.636-2.551-2.752
		c-0.249,0.181,0.601,1.094,1.024,1.553c-3.043-2.399-5.562-2.894-4.251,0.741c-0.827-0.893-1.589-2.559-2.646-3.328
		c-0.005,0.006-0.006,0.016-0.013,0.023c0.419,0.49,0.982,1.494,1.387,1.932c-0.5-0.535-0.995-1.077-1.493-1.611
		c-0.068,0.23-0.126,0.467-0.176,0.711c0.252,0.517,0.534,1.009,0.92,1.429c-0.328-0.356-0.658-0.714-0.99-1.071
		c-0.09,0.602-0.134,1.233-0.126,1.866c0.532,1.908,0.694,4.081,1.329,4.768C102.919,125.593,107.927,131.327,113.196,136.745"/>
	<path class="st1" d="M143.202,75.122c-0.255-0.498-0.666-0.912-0.548-1.262c0.498-0.856,1.971,0.49,2.47-0.367
		c-0.121-0.277-0.243-0.553-0.366-0.828c0.756,0.04,1.592,0.174,2.405,0.226c1.069-0.702,2.098-1.474,3.079-2.322
		c-0.182-0.275-0.338-0.537-0.282-0.704c0.353-0.454,1.149-0.512,1.86-0.777c0.078-0.097,0.149-0.195,0.224-0.288
		c-0.016-0.213-0.142-0.503-0.221-0.682c0.316-0.131,0.626-0.195,0.922-0.237c2.461-3.278,4.827-6.857,7.484-10.56
		c0.383-1.13,0.76-2.262,1.32-2.982c0.932-0.872,2.598-1.073,3.714-1.535c-1.645-2.733,0.224-5.456-1.79-8.038
		c0.741-0.307,1.857-0.769,1.493-1.591c-1.091-2.477-1.991-5.516-0.864-7.934c0.56-0.724,2.221-0.302,2.226-0.925
		c0.008-0.976-1.838-1.185-1.832-2.164c-5.938,1.981-10.67,5.758-16.205,8.597c-1.219,2.226-13.607,9.352-17.149,10.49l-0.277,0.187
		c-1.859,0.771-3.902,2.101-4.842,3.955c-0.341,1.02-0.618,2.19-0.907,3.333c0.57,0.294,1.115,0.602,1.616,0.925
		c-0.742,0.31-1.485,0.616-1.493,1.267c-0.876,1.989,0.721,2.956,2.311,4.573c0.858,0.62,0.97,2.201,2.072,2.718
		c-0.49,0.207-0.738,0.307-1.236,0.512c0.367,0.828,1.244-1.163,1.603,0.314c-0.616-0.068-0.872,0.685-1.367,0.887
		c0.733,0.998,1.854-0.444,2.341,0.66c-0.125,0.377-2.09-0.763-1.487,0.612c0.123,0.277,0.618,0.073,0.865-0.031
		c-1.244,1.164-1.379,2.849,0.71,3.61c-0.482,0.198-1.43-0.028-1.823,0.406l0.016,0.022c0.266-0.083,0.83-0.028,1.065-0.125
		l-0.867,0.361c0.14,0.165,0.285,0.322,0.434,0.478c0.296,0.058,0.573,0.083,0.797-0.012l-0.576,0.238
		c0.366,0.361,0.742,0.699,1.122,1.002c1.108,0.515,2.396,1.444,2.768,1.293C137.183,77.568,140.293,76.518,143.202,75.122"/>
	<path class="st1" d="M37.973,75.122c0.255-0.498,0.666-0.912,0.548-1.262c-0.501-0.856-1.971,0.49-2.469-0.367
		c0.12-0.277,0.241-0.553,0.363-0.828c-0.757,0.04-1.591,0.174-2.405,0.226c-1.071-0.702-2.1-1.474-3.077-2.322
		c0.181-0.275,0.335-0.537,0.279-0.704c-0.353-0.454-1.147-0.512-1.86-0.777c-0.075-0.097-0.149-0.195-0.221-0.288
		c0.013-0.213,0.139-0.503,0.218-0.682c-0.316-0.131-0.623-0.195-0.92-0.237c-2.461-3.278-4.825-6.857-7.485-10.56
		c-0.38-1.13-0.758-2.262-1.32-2.982c-0.929-0.872-2.596-1.073-3.711-1.535c1.644-2.733-0.224-5.456,1.787-8.038
		c-0.739-0.307-1.855-0.769-1.49-1.591c1.09-2.477,1.992-5.516,0.862-7.937c-0.56-0.721-2.22-0.3-2.227-0.922
		c-0.008-0.976,1.843-1.185,1.835-2.164c5.935,1.981,10.67,5.758,16.202,8.597c1.222,2.226,13.607,9.352,17.152,10.49l0.279,0.187
		c1.857,0.771,3.901,2.104,4.838,3.955c0.342,1.024,0.62,2.19,0.909,3.333c-0.57,0.294-1.111,0.602-1.614,0.925
		c0.742,0.31,1.485,0.616,1.49,1.267c0.879,1.989-0.718,2.956-2.307,4.573c-0.859,0.62-0.97,2.201-2.076,2.718
		c0.495,0.207,0.741,0.307,1.237,0.512c-0.366,0.828-1.242-1.163-1.602,0.314c0.616-0.068,0.869,0.685,1.364,0.887
		c-0.732,0.998-1.854-0.444-2.338,0.66c0.123,0.377,2.091-0.76,1.483,0.612c-0.121,0.277-0.615,0.073-0.862-0.031
		c1.242,1.164,1.378,2.849-0.713,3.61c0.483,0.198,1.434-0.028,1.826,0.406l-0.017,0.022c-0.268-0.083-0.831-0.028-1.066-0.123
		l0.869,0.36c-0.142,0.165-0.288,0.322-0.436,0.478c-0.293,0.058-0.57,0.083-0.797-0.012l0.579,0.238
		c-0.366,0.361-0.746,0.699-1.124,1.002c-1.108,0.515-2.394,1.444-2.764,1.293C43.992,77.568,40.879,76.518,37.973,75.122"/>
	<path class="st1" d="M17.335,194.582h7.333v16.621c2.011-2.131,5.797-4.85,11.473-4.85c5.501,0,9.048,3.253,9.048,9.462v22.533
		h-7.333v-20.701c0-3.49-1.479-5.085-4.673-5.085s-5.854,1.656-8.516,4.08v21.706h-7.333V194.582z"/>
	<path class="st1" d="M51.227,222.676c0-11.592,7.63-16.322,15.318-16.322c7.629,0,15.316,4.73,15.316,16.322
		c0,11.473-7.688,16.322-15.316,16.322C58.916,238.998,51.227,234.15,51.227,222.676 M74.529,222.676
		c0-5.856-2.484-10.114-7.984-10.114c-5.264,0-7.984,3.786-7.984,10.114c0,5.969,2.425,10.23,7.984,10.23
		C71.808,232.906,74.529,229.122,74.529,222.676"/>
	<path class="st1" d="M88.255,206.944h7.333v4.259c2.011-2.131,5.795-4.849,11.473-4.849c5.499,0,9.047,3.252,9.047,9.461v22.533
		h-7.331v-20.701c0-3.49-1.48-5.085-4.673-5.085c-3.194,0-5.854,1.656-8.516,4.08v21.706h-7.333V206.944z"/>
	<path class="st1" d="M122.146,222.676c0-11.592,7.63-16.322,15.318-16.322c7.629,0,15.318,4.73,15.318,16.322
		c0,11.473-7.689,16.322-15.318,16.322S122.146,234.15,122.146,222.676 M145.448,222.676c0-5.856-2.484-10.114-7.984-10.114
		c-5.264,0-7.984,3.786-7.984,10.114c0,5.969,2.425,10.23,7.984,10.23C142.729,232.906,145.448,229.122,145.448,222.676"/>
	<path class="st1" d="M157.399,222.676c0-11.592,7.63-16.322,15.318-16.322c7.63,0,15.317,4.73,15.317,16.322
		c0,11.473-7.686,16.322-15.317,16.322C165.088,238.998,157.399,234.15,157.399,222.676 M180.7,222.676
		c0-5.856-2.484-10.114-7.984-10.114c-5.264,0-7.984,3.786-7.984,10.114c0,5.969,2.425,10.23,7.984,10.23
		C177.979,232.906,180.7,229.122,180.7,222.676"/>
</g>
</svg>