<!-- Generator: Adobe Illustrator 19.2.1, SVG Export Plug-In  -->
<svg version="1.1"
	 xmlns="http://www.w3.org/2000/svg" xmlns:xlink="http://www.w3.org/1999/xlink" xmlns:a="http://ns.adobe.com/AdobeSVGViewerExtensions/3.0/"
	 x="0px" y="0px" width="351.277px" height="351.278px" viewBox="0 0 351.277 351.278"
	 style="enable-background:new 0 0 351.277 351.278;" xml:space="preserve">
<style type="text/css">
	.st0{stroke:#FFFFFF;stroke-width:2.8346;stroke-miterlimit:10;}
	.st1{fill:none;stroke:#FFFFFF;stroke-width:2;stroke-miterlimit:10;}
	.st2{fill:#FFFFFF;}
</style>
<defs>
</defs>
<rect x="1.417" y="1.417" class="st0" width="348.442" height="348.443"/>
<g>
	<path class="st1" d="M191.424,143.665c-4.866-5.848-9.734-11.695-14.601-17.538c-0.358-0.434-0.779-0.587-1.184-0.56
		c-0.406-0.027-0.829,0.126-1.185,0.56c-4.867,5.843-9.735,11.69-14.601,17.538c-0.902,1.082-0.377,2.864,1.184,2.864h6.125v26.529
		c0,0.914,0.764,1.676,1.679,1.676h13.595c0.915,0,1.678-0.762,1.678-1.676v-26.529h6.125
		C191.801,146.529,192.325,144.747,191.424,143.665z"/>
	<path class="st1" d="M175.639,109.191c-22.62,0-40.958,18.338-40.958,40.958c0,22.619,18.338,40.958,40.958,40.958
		c22.619,0,40.957-18.339,40.957-40.958C216.596,127.529,198.258,109.191,175.639,109.191z M175.639,184.555
		c-19.001,0-34.404-15.405-34.404-34.406c0-19.001,15.403-34.402,34.404-34.402c19.001,0,34.403,15.401,34.403,34.402
		C210.042,169.15,194.64,184.555,175.639,184.555z"/>
</g>
<g>
	<path class="st2" d="M81.797,235.687c0-4.015,2.953-5.023,5.078-5.023c2.845,0,3.853,1.44,4.411,3.061l-2.989,0.936
		c-0.306-1.17-0.792-1.44-1.458-1.44c-1.062,0-1.477,0.973-1.477,2.485c0,1.405,0.252,2.521,1.44,2.521
		c0.576,0,1.243-0.288,1.566-1.549l2.953,0.991c-0.558,1.44-1.783,3.025-4.574,3.025C84.479,240.693,81.797,239.648,81.797,235.687z
		"/>
	<path class="st2" d="M91.805,237.902c0-2.161,1.999-3.475,5.96-3.655v-0.126c0-0.468-0.234-0.81-1.062-0.81
		c-1.116,0-2.161,0.468-2.971,1.044l-1.458-2.017c0.882-0.792,2.395-1.675,4.987-1.675c2.845,0,3.979,1.333,3.979,4.051v3.439
		c0,1.152,0.072,1.854,0.271,2.341H97.98c-0.126-0.396-0.216-0.864-0.216-1.404c-0.792,0.99-1.783,1.548-3.205,1.548
		C93.173,240.639,91.805,239.792,91.805,237.902z M97.765,237.433v-1.368c-1.729,0.054-2.485,0.504-2.485,1.242
		c0,0.468,0.342,0.684,0.792,0.684C96.954,237.992,97.458,237.722,97.765,237.433z"/>
	<path class="st2" d="M103.073,230.844h3.565v1.495h0.018c0.415-0.667,1.243-1.675,3.007-1.675h0.036v3.151
		c-0.144-0.018-0.648-0.072-0.9-0.072c-1.009,0-1.693,0.504-2.161,0.882v5.87h-3.565V230.844z"/>
	<path class="st2" d="M110.993,227.17h3.565v2.737h-3.565V227.17z M110.993,230.844h3.565v9.651h-3.565V230.844z"/>
	<path class="st2" d="M116.068,235.687c0-4.015,2.953-5.023,5.078-5.023c2.845,0,3.853,1.44,4.411,3.061l-2.989,0.936
		c-0.306-1.17-0.792-1.44-1.458-1.44c-1.062,0-1.477,0.973-1.477,2.485c0,1.405,0.252,2.521,1.44,2.521
		c0.576,0,1.243-0.288,1.566-1.549l2.953,0.991c-0.558,1.44-1.783,3.025-4.574,3.025
		C118.751,240.693,116.068,239.648,116.068,235.687z"/>
	<path class="st2" d="M126.076,237.902c0-2.161,1.999-3.475,5.96-3.655v-0.126c0-0.468-0.234-0.81-1.062-0.81
		c-1.116,0-2.161,0.468-2.971,1.044l-1.459-2.017c0.882-0.792,2.395-1.675,4.987-1.675c2.845,0,3.979,1.333,3.979,4.051v3.439
		c0,1.152,0.072,1.854,0.271,2.341h-3.529c-0.126-0.396-0.216-0.864-0.216-1.404c-0.792,0.99-1.783,1.548-3.205,1.548
		C127.444,240.639,126.076,239.792,126.076,237.902z M132.036,237.433v-1.368c-1.729,0.054-2.485,0.504-2.485,1.242
		c0,0.468,0.342,0.684,0.792,0.684C131.226,237.992,131.73,237.722,132.036,237.433z"/>
	<path class="st2" d="M148.434,239.144c-0.576,0.774-1.44,1.495-2.863,1.495c-2.179,0-3.601-1.548-3.601-4.861
		s1.44-5.114,3.637-5.114c1.296,0,2.161,0.378,2.827,1.333v-1.152h3.565v13.252h-3.565V239.144z M148.434,237.289v-3.097
		c-0.486-0.432-0.864-0.612-1.477-0.612c-1.062,0-1.422,0.81-1.422,2.179c0,1.188,0.27,2.232,1.458,2.232
		C147.552,237.992,148.146,237.596,148.434,237.289z"/>
	<path class="st2" d="M153.85,237.902v-7.058h3.565v5.978c0,0.666,0.216,1.044,0.811,1.044c0.612,0,1.134-0.306,1.602-0.684v-6.338
		h3.565v9.651h-3.565v-1.477c-0.414,0.667-1.422,1.675-3.205,1.675C155.11,240.693,153.85,239.973,153.85,237.902z"/>
	<path class="st2" d="M165.424,227.17h3.565v2.737h-3.565V227.17z M165.424,230.844h3.565v9.651h-3.565V230.844z"/>
	<path class="st2" d="M176.26,227.17h3.565v13.324h-3.565V227.17z"/>
	<path class="st2" d="M181.191,237.902c0-2.161,1.999-3.475,5.96-3.655v-0.126c0-0.468-0.234-0.81-1.062-0.81
		c-1.116,0-2.161,0.468-2.971,1.044l-1.458-2.017c0.882-0.792,2.395-1.675,4.987-1.675c2.845,0,3.979,1.333,3.979,4.051v3.439
		c0,1.152,0.072,1.854,0.271,2.341h-3.529c-0.126-0.396-0.216-0.864-0.216-1.404c-0.792,0.99-1.783,1.548-3.205,1.548
		C182.56,240.639,181.191,239.792,181.191,237.902z M187.151,237.433v-1.368c-1.729,0.054-2.485,0.504-2.485,1.242
		c0,0.468,0.342,0.684,0.792,0.684C186.341,237.992,186.845,237.722,187.151,237.433z"/>
	<path class="st2" d="M198.417,237.596V233.4h-1.567v-2.557h1.567v-3.241h3.565v3.241h2.467v2.557h-2.467v3.403
		c0,1.026,0.252,1.278,1.26,1.278c0.306,0,0.774-0.054,0.937-0.108v2.484c-0.18,0.054-1.477,0.162-2.179,0.162
		C198.724,240.62,198.417,239.468,198.417,237.596z"/>
	<path class="st2" d="M205.653,237.902v-7.058h3.565v5.978c0,0.666,0.216,1.044,0.81,1.044c0.612,0,1.135-0.306,1.603-0.684v-6.338
		h3.565v9.651h-3.565v-1.477c-0.414,0.667-1.422,1.675-3.205,1.675C206.914,240.693,205.653,239.973,205.653,237.902z"/>
	<path class="st2" d="M216.471,237.902c0-2.161,1.999-3.475,5.959-3.655v-0.126c0-0.468-0.234-0.81-1.062-0.81
		c-1.116,0-2.161,0.468-2.971,1.044l-1.458-2.017c0.882-0.792,2.395-1.675,4.987-1.675c2.845,0,3.979,1.333,3.979,4.051v3.439
		c0,1.152,0.072,1.854,0.27,2.341h-3.529c-0.126-0.396-0.216-0.864-0.216-1.404c-0.792,0.99-1.782,1.548-3.205,1.548
		C217.839,240.639,216.471,239.792,216.471,237.902z M222.431,237.433v-1.368c-1.729,0.054-2.484,0.504-2.484,1.242
		c0,0.468,0.342,0.684,0.792,0.684C221.621,237.992,222.125,237.722,222.431,237.433z"/>
	<path class="st2" d="M233.805,233.4h-1.566v-2.557h1.566v-0.36c0-1.603,0.306-3.403,3.583-3.403c0.702,0,1.999,0.108,2.179,0.162
		v2.431c-0.162-0.054-0.63-0.108-0.937-0.108c-0.63,0-1.26,0.036-1.26,1.062v0.216h2.089v2.557h-2.089v7.094h-3.565V233.4z"/>
	<path class="st2" d="M239.853,235.687c0-4.015,2.809-5.023,5.149-5.023c2.323,0,5.149,1.008,5.149,5.023
		c0,3.961-2.827,5.006-5.149,5.006S239.853,239.648,239.853,235.687z M246.586,235.705c0-1.404-0.36-2.485-1.584-2.485
		c-1.17,0-1.584,0.973-1.584,2.485c0,1.405,0.342,2.521,1.584,2.521C246.172,238.226,246.586,237.236,246.586,235.705z"/>
	<path class="st2" d="M252.381,237.596V233.4h-1.567v-2.557h1.567v-3.241h3.565v3.241h2.467v2.557h-2.467v3.403
		c0,1.026,0.252,1.278,1.26,1.278c0.306,0,0.774-0.054,0.937-0.108v2.484c-0.18,0.054-1.477,0.162-2.179,0.162
		C252.687,240.62,252.381,239.468,252.381,237.596z"/>
	<path class="st2" d="M259.185,235.687c0-4.015,2.809-5.023,5.149-5.023c2.323,0,5.149,1.008,5.149,5.023
		c0,3.961-2.827,5.006-5.149,5.006S259.185,239.648,259.185,235.687z M265.918,235.705c0-1.404-0.36-2.485-1.584-2.485
		c-1.17,0-1.584,0.973-1.584,2.485c0,1.405,0.342,2.521,1.584,2.521C265.504,238.226,265.918,237.236,265.918,235.705z"/>
</g>
</svg>