<!-- Generator: Adobe Illustrator 19.2.1, SVG Export Plug-In  -->
<svg version="1.1"
	 xmlns="http://www.w3.org/2000/svg" xmlns:xlink="http://www.w3.org/1999/xlink" xmlns:a="http://ns.adobe.com/AdobeSVGViewerExtensions/3.0/"
	 x="0px" y="0px" width="114.843px" height="114.844px" viewBox="0 0 114.843 114.844"
	 style="enable-background:new 0 0 114.843 114.844;" xml:space="preserve">
<style type="text/css">
	.st0{fill:#FFFFFF;}
</style>
<defs>
</defs>
<g>
	<path class="st0" d="M66.786,92.29H48.058c-1.826,0-3.312-1.484-3.312-3.309V53.436h-7.438c-1.297,0-2.388-0.675-2.917-1.807
		c-0.575-1.228-0.373-2.711,0.517-3.779c6.704-8.055,13.409-16.11,20.114-24.16c0.632-0.77,1.497-1.168,2.401-1.133
		c0.902-0.037,1.763,0.362,2.402,1.137c6.701,8.046,13.407,16.101,20.11,24.156c0.89,1.068,1.092,2.552,0.517,3.779
		c-0.53,1.131-1.62,1.806-2.917,1.806h-7.438v35.545C70.098,90.805,68.612,92.29,66.786,92.29z M57.302,24.555
		c-0.271,0-0.513,0.134-0.738,0.41c-6.71,8.055-13.415,16.109-20.119,24.165c-0.449,0.54-0.446,1.218-0.243,1.651
		c0.14,0.299,0.445,0.655,1.106,0.655h9.438v37.545c0,0.709,0.601,1.309,1.312,1.309h18.729c0.711,0,1.312-0.599,1.312-1.309V51.436
		h9.438c0.661,0,0.966-0.356,1.106-0.654c0.202-0.433,0.206-1.111-0.243-1.651l0,0c-6.703-8.056-13.409-16.11-20.113-24.159
		c-0.246-0.299-0.5-0.43-0.796-0.414l-0.066,0.005l-0.066-0.004C57.338,24.556,57.319,24.555,57.302,24.555z"/>
</g>
<g>
	<path class="st0" d="M57.422,114.844C25.76,114.844,0,89.084,0,57.422S25.76,0,57.422,0s57.421,25.759,57.421,57.422
		S89.084,114.844,57.422,114.844z M57.422,2C26.862,2,2,26.862,2,57.422c0,30.56,24.862,55.422,55.422,55.422
		s55.421-24.862,55.421-55.422C112.843,26.862,87.981,2,57.422,2z M57.422,105.818c-26.685,0-48.394-21.71-48.394-48.396
		c0-26.683,21.709-48.391,48.394-48.391c26.684,0,48.393,21.708,48.393,48.391C105.814,84.108,84.105,105.818,57.422,105.818z
		 M57.422,11.031c-25.581,0-46.394,20.811-46.394,46.391c0,25.583,20.812,46.396,46.394,46.396s46.393-20.813,46.393-46.396
		C103.814,31.842,83.003,11.031,57.422,11.031z"/>
</g>
</svg>