<!-- Generator: Adobe Illustrator 21.1.0, SVG Export Plug-In  -->
<svg version="1.1"
	 xmlns="http://www.w3.org/2000/svg" xmlns:xlink="http://www.w3.org/1999/xlink" xmlns:a="http://ns.adobe.com/AdobeSVGViewerExtensions/3.0/"
	 x="0px" y="0px" width="962px" height="483.5px" viewBox="0 0 962 483.5" style="enable-background:new 0 0 962 483.5;"
	 xml:space="preserve">
<style type="text/css">
	.st0{fill:#FFFFFF;}
	.st1{fill:#FFFFFF;stroke:#FFFFFF;stroke-width:3;stroke-miterlimit:10;}
	.st2{fill:#202020;}
</style>
<defs>
</defs>
<g>
	<rect y="2" width="480" height="480"/>
	<g>
		<path class="st0" d="M249.364,242h-18.729c-1.826,0-3.636-1.301-3.636-3.125V203h-7.114c-1.297,0-2.388-0.511-2.917-1.642
			c-0.575-1.228-0.373-2.629,0.517-3.697c6.704-8.055,13.409-16.069,20.114-24.119c0.632-0.77,1.497-1.148,2.401-1.112
			c0.902-0.037,1.763,0.372,2.402,1.147c6.701,8.046,13.407,16.106,20.11,24.161c0.89,1.068,1.092,2.39,0.517,3.617
			c-0.53,1.131-1.62,1.644-2.917,1.644H253v35.875C253,240.699,251.19,242,249.364,242z M239.88,174.449
			c-0.271,0-0.513,0.134-0.738,0.41c-6.71,8.055-13.415,16.109-20.119,24.165c-0.449,0.54-0.446,1.053-0.243,1.486
			c0.14,0.299,0.445,0.49,1.106,0.49H229v37.875c0,0.709,0.924,1.125,1.636,1.125h18.729c0.711,0,1.636-0.416,1.636-1.125V201h9.113
			c0.661,0,0.966-0.191,1.106-0.49c0.202-0.433,0.206-1.029-0.243-1.569l0,0c-6.703-8.056-13.409-16.069-20.113-24.118
			c-0.246-0.299-0.5-0.409-0.796-0.393l-0.066,0.015l-0.066,0.001C239.916,174.444,239.897,174.449,239.88,174.449z"/>
	</g>
	<g>
		<path class="st0" d="M240,264.738c-31.662,0-57.422-25.76-57.422-57.422s25.76-57.422,57.422-57.422s57.421,25.759,57.421,57.422
			S271.662,264.738,240,264.738z M240,151.894c-30.56,0-55.422,24.862-55.422,55.422c0,30.56,24.862,55.422,55.422,55.422
			s55.421-24.862,55.421-55.422C295.421,176.756,270.56,151.894,240,151.894z M240,255.712c-26.685,0-48.394-21.71-48.394-48.396
			c0-26.683,21.709-48.391,48.394-48.391c26.684,0,48.393,21.708,48.393,48.391C288.393,234.001,266.684,255.712,240,255.712z
			 M240,160.925c-25.581,0-46.394,20.811-46.394,46.391c0,25.583,20.812,46.396,46.394,46.396s46.393-20.813,46.393-46.396
			C286.393,181.735,265.581,160.925,240,160.925z"/>
	</g>
	<g>
		<path class="st0" d="M111.083,325.149c0-5.531,4.067-6.92,6.995-6.92c3.919,0,5.308,1.984,6.077,4.217l-4.117,1.289
			c-0.422-1.612-1.092-1.984-2.009-1.984c-1.464,0-2.034,1.34-2.034,3.423c0,1.935,0.347,3.473,1.984,3.473
			c0.794,0,1.712-0.397,2.158-2.134l4.068,1.365c-0.769,1.984-2.456,4.167-6.301,4.167
			C114.779,332.045,111.083,330.607,111.083,325.149z"/>
		<path class="st0" d="M124.83,328.201c0-2.976,3.17-4.787,8.17-5.035v-0.174c0-0.644-0.283-1.116-1.424-1.116
			c-1.538,0-2.957,0.645-4.072,1.439l-1.999-2.778c1.215-1.092,3.371-2.307,6.942-2.307c3.919,0,5.553,1.836,5.553,5.581v4.737
			c0,1.587-0.034,2.452,0.239,3.452h-4.862c-0.174-1-0.297-1.304-0.297-2.048c-1.092,1.364-2.476,2.076-4.435,2.076
			C126.734,332.028,124.83,330.805,124.83,328.201z M133,327.555v-1.885c-2,0.074-3.383,0.694-3.383,1.711
			c0,0.645,0.451,0.942,1.071,0.942C131.903,328.324,133,327.952,133,327.555z"/>
		<path class="st0" d="M140,318h5v3h0.328c0.571-1,1.712-3,4.143-3H150v4.57c-1-0.025-1.284-0.099-1.631-0.099
			c-1.39,0-2.369,0.694-3.369,1.215V332h-5V318z"/>
		<path class="st0" d="M151,313h5v4h-5V313z M151,318h5v14h-5V318z"/>
		<path class="st0" d="M158.294,325.149c0-5.531,4.067-6.92,6.995-6.92c3.919,0,5.308,1.984,6.077,4.217l-4.117,1.289
			c-0.422-1.612-1.092-1.984-2.009-1.984c-1.464,0-2.034,1.34-2.034,3.423c0,1.935,0.347,3.473,1.984,3.473
			c0.794,0,1.712-0.397,2.158-2.134l4.068,1.365c-0.769,1.984-2.456,4.167-6.301,4.167
			C161.99,332.045,158.294,330.607,158.294,325.149z"/>
		<path class="st0" d="M171.935,328.201c0-2.976,3.065-4.787,8.065-5.035v-0.174c0-0.644-0.178-1.116-1.318-1.116
			c-1.538,0-2.904,0.645-4.02,1.439l-1.973-2.778c1.215-1.092,3.278-2.307,6.85-2.307c3.919,0,5.461,1.836,5.461,5.581v4.737
			c0,1.587,0.177,2.452,0.45,3.452h-4.862c-0.174-1-0.297-1.304-0.297-2.048c-1.092,1.364-2.528,2.076-4.488,2.076
			C173.893,332.028,171.935,330.805,171.935,328.201z M180,327.555v-1.885c-2,0.074-3.278,0.694-3.278,1.711
			c0,0.645,0.398,0.942,1.018,0.942C178.956,328.324,180,327.952,180,327.555z"/>
		<path class="st0" d="M203,329.912c-1,1.067-2.044,2.059-4.004,2.059c-3.001,0-4.991-2.133-4.991-6.697s2.029-7.045,5.056-7.045
			c1.786,0,2.939,0.521,3.939,1.836V318h5v19h-5V329.912z M203,327.357v-4.266c-1-0.595-1.251-0.843-2.094-0.843
			c-1.463,0-1.989,1.116-1.989,3.001c0,1.637,0.417,3.075,2.054,3.075C201.739,328.324,202,327.779,203,327.357z"/>
		<path class="st0" d="M210,328.201V318h5v8.713c0,0.917,0.636,1.438,1.455,1.438c0.843,0,1.545-0.422,2.545-0.942V318h4v14h-4
			v-2.262c-1,0.918-2.342,2.307-4.797,2.307C212.119,332.045,210,331.053,210,328.201z"/>
		<path class="st0" d="M226,313h5v4h-5V313z M226,318h5v14h-5V318z"/>
		<path class="st0" d="M241,313h5v19h-5V313z"/>
		<path class="st0" d="M247.897,328.201c0-2.976,3.103-4.787,8.103-5.035v-0.174c0-0.644-0.215-1.116-1.356-1.116
			c-1.538,0-2.923,0.645-4.038,1.439l-1.982-2.778c1.215-1.092,3.311-2.307,6.883-2.307c3.919,0,5.494,1.836,5.494,5.581v4.737
			c0,1.587,0.101,2.452,0.374,3.452h-4.862c-0.174-1-0.297-1.304-0.297-2.048c-1.092,1.364-2.51,2.076-4.469,2.076
			C249.836,332.028,247.897,330.805,247.897,328.201z M256,327.555v-1.885c-2,0.074-3.315,0.694-3.315,1.711
			c0,0.645,0.417,0.942,1.037,0.942C254.937,328.324,256,327.952,256,327.555z"/>
		<path class="st0" d="M272,327.779V322h-2v-4h2v-4h5v4h3v4h-3v4.688c0,1.413,0.334,1.761,1.723,1.761
			c0.422,0,0.277-0.075,1.277-0.149v3.422c-1,0.075-2.065,0.223-3.033,0.223C272.453,331.946,272,330.358,272,327.779z"/>
		<path class="st0" d="M282,328.201V318h5v8.713c0,0.917,0.136,1.438,0.954,1.438c0.843,0,1.046-0.422,2.046-0.942V318h5v14h-5
			v-2.262c-1,0.918-1.842,2.307-4.297,2.307C283.619,332.045,282,331.053,282,328.201z"/>
		<path class="st0" d="M296.698,328.201c0-2.976,2.302-4.787,8.302-5.035v-0.174c0-0.644-0.415-1.116-1.556-1.116
			c-1.538,0-3.023,0.645-4.139,1.439l-2.032-2.778c1.215-1.092,3.486-2.307,7.058-2.307c3.919,0,5.669,1.836,5.669,5.581v4.737
			c0,1.587-0.299,2.452-0.026,3.452h-4.861c-0.174-1-0.298-1.304-0.298-2.048c-1.091,1.364-2.409,2.076-4.368,2.076
			C298.536,332.028,296.698,330.805,296.698,328.201z M305,327.555v-1.885c-3,0.074-3.515,0.694-3.515,1.711
			c0,0.645,0.517,0.942,1.137,0.942C303.838,328.324,304,327.952,305,327.555z"/>
		<path class="st0" d="M320,322h-2v-4h2v-0.018c0-2.208,0.453-4.688,4.967-4.688c0.967,0,3.033,0.149,3.033,0.223v3.348
			c0-0.074-0.855-0.149-1.277-0.149c-0.868,0-1.723,0.05-1.723,1.463V318h3v4h-3v10h-5V322z"/>
		<path class="st0" d="M328.814,325.149c0-5.531,3.869-6.92,7.094-6.92c3.2,0,7.094,1.389,7.094,6.92
			c0,5.457-3.894,6.896-7.094,6.896S328.814,330.607,328.814,325.149z M338.091,325.174c0-1.934-0.496-3.423-2.183-3.423
			c-1.612,0-2.183,1.34-2.183,3.423c0,1.935,0.471,3.473,2.183,3.473C337.52,328.647,338.091,327.283,338.091,325.174z"/>
		<path class="st0" d="M346,327.779V322h-2v-4h2v-4h5v4h3v4h-3v4.688c0,1.413,0.334,1.761,1.723,1.761
			c0.422,0,1.277-0.075,1.277-0.149v3.422c0,0.075-2.065,0.223-3.033,0.223C346.453,331.946,346,330.358,346,327.779z"/>
		<path class="st0" d="M355.445,325.149c0-5.531,3.869-6.92,7.094-6.92c3.2,0,7.094,1.389,7.094,6.92
			c0,5.457-3.894,6.896-7.094,6.896S355.445,330.607,355.445,325.149z M364.722,325.174c0-1.934-0.496-3.423-2.183-3.423
			c-1.612,0-2.183,1.34-2.183,3.423c0,1.935,0.472,3.473,2.183,3.473C364.151,328.647,364.722,327.283,364.722,325.174z"/>
	</g>
	<rect x="480.5" y="1.5" class="st1" width="480" height="480.5"/>
	<g>
		<path class="st2" d="M594.233,329.903l1.811-2.753c1.24,0.992,3.249,1.612,4.762,1.612c0.844,0,1.587-0.248,1.587-0.868
			c0-0.694-0.62-0.917-2.058-1.116c-2.257-0.322-5.458-0.843-5.458-4.291c0-2.976,2.431-4.49,5.432-4.49
			c2.903,0,4.589,0.67,6.202,1.836l-1.811,2.703c-1.439-0.843-2.853-1.339-3.919-1.339c-0.819,0-1.364,0.248-1.364,0.843
			c0,0.62,0.694,0.844,2.033,1.017c2.257,0.297,5.482,0.794,5.482,4.018c0,3.523-3.026,4.738-6.101,4.738
			C597.731,331.813,595.697,330.969,594.233,329.903z"/>
		<path class="st2" d="M607.872,324.917c0-5.531,4.068-6.92,6.994-6.92c3.919,0,5.308,1.984,6.078,4.217l-4.118,1.289
			c-0.422-1.612-1.091-1.984-2.01-1.984c-1.462,0-2.033,1.34-2.033,3.423c0,1.935,0.347,3.473,1.984,3.473
			c0.794,0,1.711-0.397,2.158-2.134l4.067,1.365c-0.768,1.984-2.455,4.167-6.3,4.167
			C611.567,331.813,607.872,330.374,607.872,324.917z"/>
		<path class="st2" d="M623,318.5h4v2h0.511c0.57-1,1.711-3,4.142-3H632v4.838c0-0.025-1.285-0.099-1.632-0.099
			c-1.39,0-2.368,0.694-3.368,1.215v8.046h-4V318.5z"/>
		<path class="st2" d="M633,313.5h5v3h-5V313.5z M633,318.5h5v13h-5V318.5z"/>
		<path class="st2" d="M639.535,318.5h5.035l2.331,8h0.05l2.357-8h4.563l-4.688,13h-4.96L639.535,318.5z"/>
		<path class="st2" d="M655,313.5h5v3h-5V313.5z M655,318.5h5v13h-5V318.5z"/>
		<path class="st2" d="M678,329.679c-1,1.067-1.986,2.059-3.946,2.059c-3,0-4.961-2.133-4.961-6.697s1.985-7.045,5.011-7.045
			c1.787,0,2.896,0.521,3.896,1.836V318.5h5v18h-5V329.679z M678,327.125v-4.266c-1-0.595-1.192-0.843-2.036-0.843
			c-1.464,0-1.96,1.116-1.96,3.001c0,1.637,0.372,3.075,2.01,3.075C676.784,328.092,678,327.546,678,327.125z"/>
		<path class="st2" d="M685,327.968V318.5h5v7.98c0,0.917,0.635,1.438,1.454,1.438c0.844,0,1.546-0.422,2.546-0.942V318.5h5v13h-5
			v-1.994c-1,0.918-2.342,2.307-4.797,2.307C687.119,331.813,685,330.821,685,327.968z"/>
		<path class="st2" d="M701,313.5h5v3h-5V313.5z M701,318.5h5v13h-5V318.5z"/>
		<path class="st2" d="M716,313.5h5v3h-5V313.5z M716,318.5h5v13h-5V318.5z"/>
		<path class="st2" d="M724,313.5h5v18h-5V313.5z"/>
		<path class="st2" d="M740,327.546V321.5h-2v-3h2v-5h5v5h3v3h-3v4.955c0,1.413,0.334,1.761,1.724,1.761
			c0.421,0,1.276-0.075,1.276-0.149v3.422c0,0.075-2.065,0.223-3.033,0.223C740.454,331.713,740,330.126,740,327.546z"/>
		<path class="st2" d="M750,327.968V318.5h5v7.98c0,0.917,0.135,1.438,0.954,1.438c0.844,0,2.046-0.422,2.046-0.942V318.5h5v13h-5
			v-1.994c0,0.918-1.842,2.307-4.297,2.307C751.619,331.813,750,330.821,750,327.968z"/>
		<path class="st2" d="M765.15,324.917c0-5.531,3.869-6.92,7.094-6.92c3.199,0,7.094,1.389,7.094,6.92
			c0,5.457-3.895,6.896-7.094,6.896C769.045,331.813,765.15,330.374,765.15,324.917z M774.427,324.942
			c0-1.935-0.496-3.423-2.183-3.423c-1.612,0-2.182,1.34-2.182,3.423c0,1.935,0.471,3.473,2.182,3.473
			C773.856,328.415,774.427,327.051,774.427,324.942z"/>
		<path class="st2" d="M789,327.546V321.5h-2v-3h2v-5h5v5h4v3h-4v4.955c0,1.413,0.334,1.761,1.724,1.761
			c0.421,0,1.276-0.075,1.276-0.149v3.422c0,0.075-2.065,0.223-3.033,0.223C789.454,331.713,789,330.126,789,327.546z"/>
		<path class="st2" d="M798.874,324.917c0-5.333,4.158-6.92,6.86-6.92c2.63,0,6.266,0.943,6.266,7.565v0.938h-8.24
			c0.249,2,1.216,2.062,2.654,2.062c1.388,0,2.952-0.743,3.819-1.264l1.761,2.952c-1.686,1.091-3.745,1.575-5.953,1.575
			C802.396,331.825,798.874,330.299,798.874,324.917z M807.927,323.5c-0.199-2-0.919-2.083-2.084-2.083
			c-0.967,0-1.737,0.083-2.034,2.083H807.927z"/>
		<path class="st2" d="M812.957,329.903l1.811-2.753c1.24,0.992,3.249,1.612,4.762,1.612c0.844,0,1.587-0.248,1.587-0.868
			c0-0.694-0.62-0.917-2.058-1.116c-2.257-0.322-5.456-0.843-5.456-4.291c0-2.976,2.43-4.49,5.431-4.49
			c2.902,0,4.589,0.67,6.202,1.836l-1.811,2.703c-1.439-0.843-2.853-1.339-3.919-1.339c-0.819,0-1.364,0.248-1.364,0.843
			c0,0.62,0.694,0.844,2.033,1.017c2.257,0.297,5.482,0.794,5.482,4.018c0,3.523-3.026,4.738-6.102,4.738
			C816.455,331.813,814.421,330.969,812.957,329.903z"/>
		<path class="st2" d="M828,327.546V321.5h-2v-3h2v-5h5v5h4v3h-4v4.955c0,1.413,0.334,1.761,1.724,1.761
			c0.421,0,1.276-0.075,1.276-0.149v3.422c0,0.075-2.065,0.223-3.033,0.223C828.454,331.713,828,330.126,828,327.546z"/>
		<path class="st2" d="M837.704,324.917c0-5.531,3.869-6.92,7.094-6.92c3.199,0,7.094,1.389,7.094,6.92
			c0,5.457-3.895,6.896-7.094,6.896C841.598,331.813,837.704,330.374,837.704,324.917z M846.981,324.942
			c0-1.935-0.496-3.423-2.183-3.423c-1.612,0-2.182,1.34-2.182,3.423c0,1.935,0.471,3.473,2.182,3.473
			C846.409,328.415,846.981,327.051,846.981,324.942z"/>
	</g>
	<g>
		<path class="st2" d="M900,55h1v-3.875c0,0.169,0,0.302-1,0.302v-1.182c1-0.017,1.166-0.244,1.459-0.244H903v5h1v1h-4V55z"/>
		<path class="st2" d="M907,55h-3v-0.942L907.101,50H909v4h1v1h-1v1h-2V55z M907,54v-2h0.28l-1.681,2H907z"/>
		<path class="st2" d="M913,55h-3v-0.942L913.107,50H915v4h1v1h-1v1h-2V55z M913,54v-2h0.286l-1.68,2H913z"/>
		<path class="st2" d="M908.021,70.226c-9.468,0-17.172-7.226-17.172-17.226h1.974c0,8,6.818,15.252,15.197,15.252
			c8.381,0,15.188-6.791,15.188-15.172c0-8.38-7.209-15.17-15.209-15.17v-1.975c9,0,17.183,7.677,17.183,17.145
			C925.183,62.549,917.489,70.226,908.021,70.226"/>
	</g>
</g>
</svg>