<!-- Generator: Adobe Illustrator 19.2.1, SVG Export Plug-In  -->
<svg version="1.1"
	 xmlns="http://www.w3.org/2000/svg" xmlns:xlink="http://www.w3.org/1999/xlink" xmlns:a="http://ns.adobe.com/AdobeSVGViewerExtensions/3.0/"
	 x="0px" y="0px" width="34.344px" height="34.344px" viewBox="0 0 34.344 34.344"
	 style="enable-background:new 0 0 34.344 34.344;" xml:space="preserve">
<style type="text/css">
	.st0{fill:#202020;}
</style>
<defs>
</defs>
<g>
	<path class="st0" d="M9.383,19.332h1.191V15.19c-0.32,0.169-0.79,0.302-1.172,0.302v-1.182c0.506-0.017,0.915-0.151,1.208-0.426
		h1.36v5.448h1.039v1.129H9.383V19.332z"/>
	<path class="st0" d="M16.448,19.173h-3.192v-1.05l2.995-4.239h1.592v4.151h1.11v1.138h-1.11v1.289h-1.395V19.173z M16.448,18.035
		v-2.427H16.43l-1.681,2.427H16.448z"/>
	<path class="st0" d="M22.455,19.173h-3.192v-1.05l2.995-4.239h1.592v4.151h1.111v1.138H23.85v1.289h-1.395V19.173z M22.455,18.035
		v-2.427h-0.018l-1.68,2.427H22.455z"/>
	<path class="st0" d="M17.172,34.344C7.704,34.344,0,26.64,0,17.172h1.974c0,8.381,6.818,15.199,15.197,15.199
		c8.381,0,15.199-6.818,15.199-15.199c0-8.38-6.818-15.196-15.199-15.196V0c9.469,0,17.173,7.704,17.173,17.172
		C34.344,26.64,26.64,34.344,17.172,34.344"/>
</g>
</svg>